<?xml version="1.0" encoding="utf-8"?>
<!-- Generator: Adobe Illustrator 27.3.1, SVG Export Plug-In . SVG Version: 6.00 Build 0)  -->
<svg version="1.1" id="圖層_1" xmlns="http://www.w3.org/2000/svg" xmlns:xlink="http://www.w3.org/1999/xlink" x="0px" y="0px"
	 viewBox="0 0 632.2 461" style="enable-background:new 0 0 632.2 461;" xml:space="preserve">
<style type="text/css">
	.st0{stroke:#B49650;stroke-width:2;stroke-linecap:round;stroke-linejoin:round;stroke-miterlimit:10;}
	.st1{fill:#231815;}
	.st2{fill:#D6B054;}
	.st3{fill:none;stroke:#B49650;stroke-width:2.6022;stroke-linecap:round;stroke-linejoin:round;stroke-miterlimit:10;}
	.st4{enable-background:new    ;}
	.st5{stroke:#B49650;stroke-width:1.3011;stroke-linecap:round;stroke-linejoin:round;stroke-miterlimit:10;}
	.st6{fill:none;stroke:#B49650;stroke-width:2;stroke-linecap:round;stroke-linejoin:round;stroke-miterlimit:10;}
</style>
<rect x="193.1" y="40.4" class="st0" width="282.2" height="54.7"/>
<g>
	<g>
		<g>
			<g>
				<g>
					<path d="M600.3,385.3c-0.6-0.5-1.1-0.8-0.8-1.2c-1.7-1.2-2.9-2.3-4.4-2.8c-2.1-1.1-4-1.9-5.9-2.3c-3.1-2.3-6.1,0.7-8.3,2.3
						c-3,0.1-5.9,2.5-8.3,0.9c-1.5-1.3,0.5-2.3,1.1-3.2c0.7-2.3,2.3-3.2,3.2-5.1c2.8-3.6,5.2-7.9,8.7-11.1c1.3-1.1,2.6-2.8,3.3-4.4
						c0-1.3-0.5-2.3-0.9-3c-0.2-3.1-3.3-3.3-4.8-4.5c-2.8,0.1-4.6-1.9-6.9-1.9c-2.3,1.3-4.9,1.7-7.1,2.1c-1.2-3-1.3-6.3-1.6-9.1
						c-1.1-0.9-0.6-2.1-1.3-2.6c-0.4-1.6-1.4-2.7-2.3-3.4c-1.6-0.6-3.3-0.7-4.3-1.1c-1,0.6-1.9-0.4-2.6,0.5c-1,0.9,1.1,1.5,1.6,2.6
						c0.2,0.6,0.9,1.4,0.5,2.5c0.8,5.3-2.4,10.1-4.7,14.8c-1,2.8-4.1,5-2.9,8.9c0.6,0.6-0.3,1.7,0.6,2.8c-0.2,1.9,1.2,4,1.8,6.2
						c0.6,1.6,3,0.8,4.8,1.2c2.1-0.9,2.5-3.3,4.7-4c1,1.5-0.2,4-0.6,6c-1.6,1.5-1.3,3.8-2.6,5.4c-0.8,2.1-2.7,3.9-4.5,5.4
						c-2.3-0.5-4,0.8-5.9,0.5c-1.2,0.2-2.3-0.1-3,0.2c-2.4-0.6-4.4,1-6.3,0.3c-1.1-0.8-0.2-1.7-0.1-2.3c0.6-1.3,1.3-2.6,1.8-3.8
						c0-0.8,0.7-0.9,0.6-1.6c1.3-2.9,2.5-5.1,3.1-8c-0.2-4.7-4.7-7-7.8-8.8c-2.8-1.8,0.3-4.1,0.1-5.9l-0.9,0.5
						c-0.6,1.1-1.8,2.1-2.6,3.3c-1.3,0.5-2.7,0.2-3.7,0.2c-2.6,0.2-5.2-2.3-7.4-0.3c-2.1-0.3-3.9,0.7-5.3,1.9
						c-0.4,0.3-0.4,0.7,0,1.4c-0.5,1-1.9,0.1-2.5,0.8c-2.9,2.7-6.1,5.2-7.8,8.7c-1.7,1.5-2.8,4.1-4.4,5.7c0,1.2-0.6,2.4-1.4,3.4
						c-1.7,2.7-3,5.8-4.3,8.9c-1.8,0.9-1.2,3.2-2.8,4.6c-0.9-0.9-1.3-2.2-1.9-2.8c-0.1-2.2-1.5-3.7-1.7-5.2c-1.2-0.8-1.2-2.3-0.9-3
						c-0.9-1.4-1.3-2.8-1.6-3.7c-0.2-1.9-0.2-4,0.3-5.4c-2.6,0.1-2.1,2.9-3.6,4.3c0.2,1.7-2.1,3.1-1.3,5.4c-0.9,0.7-0.4,2.3-0.4,3.5
						c0.9,3.4,1.6,7.7,2.3,11.7c-0.3,0.9,0.9,2.1,0.3,3.3c-0.1,2.8-1.1,5.7-0.9,8.9c0.8,3.2-0.7,7.2,1.9,10.3
						c0.2,2.1,2.2,3.4,3.7,5.2c2.2,1.2,4,3.4,6.8,4.5c0.4,0.3,1.1-0.6,1.6-0.9c-0.1-0.4,0-0.8-0.1-0.5c-0.2-2.6-0.9-4.4-0.9-6.6
						c-1.5-0.9,0-2.3-1.2-2.9c-0.1-1.3-0.9-2.1,0.2-2.8l1.3,0.8c1.9,2.6,1.5,6,3.8,8.8c0.7,0.6,1.3,2.5,3.1,2.1
						c0.5,1,2.1,0.5,3.4,0.6c0.3-0.6-0.4-1,0.3-1.2c0.2-0.3,0.4-0.2,0.9,0.1c0.1-1.3,0.5-2.3,1.4-3c0.6-0.9,0.2-2.5,1.6-2.3
						c1.9,2,3.6,4.6,5.1,7.4c1.9,0.5,3.2,4.4,6.2,3.5c-0.2-0.4-0.1-0.6,0.1-0.5c0-0.4,0.1,0,0.5,0.2c0.8-0.9,1.8-1.7,2.2-2.8
						c3.8-2.9,3.3-8.2,3.6-12.2c1.1-1,2.6-0.2,4,0.8c0.2,0,0.8,0.4,1.3-0.1c3.6-0.3,5.9-3.5,9.1-5.3c0.7-0.5,0.7-1.7,2-1.5
						c0,0.1,0.6,0.3,0.6,0.9c-0.9,3.6-1.5,7.7-2.8,11.7c-0.4,1-0.6,2.2-1.1,3.4c0.2,2-1.9,3.4-1.7,5.7c1.7,3.8,3.1,8.1,6.4,11.7
						c0.4,0,1.5-0.2,2.3-0.2c1.1-3,0-6.1,2.6-8.2c0.7-2.9,1.5-5.6,2.5-8.1c-0.4-2.6,0.9-4.4,0.9-6.6c0.2-1.4-0.6-3.2,1.1-3.8
						c1.9-0.8,4-1.4,6.1-2.3c0.7,0,1.2-0.5,2-0.8c1.2-0.6,3.2-1.4,4.6,0.3c-0.2,1.4-1.1,2.9-1.2,4.8c-2.3,0.9-0.3,3.5-2.5,4.6
						c-0.6,1.2-1.3,2.7-2,4.3c-2.3,1.8-6.4,1.9-6.5,5.4c0.7,2,1.3,4.7,1.4,7.6c0.6,1.1,2.3,1,3.7,1.8l0.4-0.4c0.7,1,1.5-0.9,2.2,0.8
						l0.2-0.2c0.9-0.4,1.7-0.8,2.8-0.4c0.6-0.1,1.1-0.1,2,0.1c0.8-0.9,2.3-0.8,3.4-0.1c1.2-0.1,2.8-0.1,4.2,0.8
						c1.7-0.3,3.5-1.5,4.5-3c0.1-1.4-0.2-2.8-0.5-3.5c-2.1-1.5-1.1-5.2-3.7-5c-2,0.2-4.1-0.1-5.7,0.6c-0.8-0.8-1.9-0.5-1.7-1.4
						c0-0.8,0.2-1.5,1.1-1.6c0.8-2.5,2.9-3.5,4.7-5.2c1.1-2.3,3.5-2.3,5.1-3.8c0.6-0.3,0.3-1.3,1.4-1.1c0.5-2.6,3.6-2.3,4.2-4.8
						c2.3-1.7,2.3-4.5,3.1-6.8c-0.3-1.6,0.8-2.8-0.3-3.8c-1.9-1.2-2.8-2.8-4.6-3.2c-1.3,0.2-1.7-1.4-2.6-0.6c-2.3-0.8-4-0.8-6-0.5
						c-1.1,1.3-2.8-0.8-3.4,1.2c-1.2-0.3-0.9,0.9-1.7,1.1c-1.5,2-4.4,1.8-5.5,4c-1.7,0.2-2.8,1.4-4.3,1.9c-0.7-0.2-0.8,0.6-1.3,0.5
						c-2.1,1.7-4.8,2.6-6.9,3.7c-2.2-0.8-1.8-2.8-2.6-4.2c-1.8-3.2,1.6-4.8,2.2-6.9c0,0,0.2,0.1,0.6,0.2c1.1-1.6,2.8-3,3.6-4.6
						c0.6-0.2,1.6-0.6,2.6-0.3c0.3-1.4,1.3,0.3,1.8-0.5c0.7,1.1,2-0.7,3.4,0.1c1.3-0.7,3.1-1.6,4.8-0.8c1.9,0.4,3.7-0.8,6-0.6
						c1.3-0.9,3-0.6,4.7-1.1c1.9-0.4,4.2-1.1,6.5-1.1c1.1-1,2.8,0,4.2-0.4c0.2-0.9,1.1,0.3,1.8-0.3c0.8-0.2,2.7,0.6,3.8-0.4
						C604.9,394.7,599.7,388.7,600.3,385.3z M507.2,397.4c-1.3,1.2-2.7,2.1-2.6,4.2c-1.2,1-1.5,2.8-3,3.7c-0.6,1.7-2.1,3-2.1,5.2
						c-0.8,0.2-0.6,1.5-1.5,1.5c-1.2-1.4,0.6-2.7-0.3-3.7c0.2-1.6,0.2-3.4,0.8-4.8c0.2-3.8,2.5-6.7,3.3-9.9c1.5-1.6,2-3.8,2.6-5.7
						c0.2-0.8,1.4-1.1,1.2-1.9c2.2-2.1,2.1-5.3,4-6.9c1.3,1.9-0.1,5.1,0.9,7.4c-0.5,1.2,0.3,3.2,0.2,5.2
						C509.4,393.4,507.7,395.1,507.2,397.4z M520.9,410c-0.6,1.9-0.6,4-1.9,5.6c-0.7,0.9-1.7,1.5-2.8,1.7c-0.4-0.7-0.1-1.6,0.4-2.3
						c0.4-0.7,1-1.3,1.3-2c0.9-1.8,0.2-4.3,1.6-5.8c0.3-0.3,0.6-0.5,0.8-0.8c0.5-0.7-0.2-1.9,1.1-2.2c1.1-0.3,1.5,0.8,1.5,1.7
						c0.1,1.3-0.6,1.5-1.2,2.3C521.3,408.8,521,409.4,520.9,410z M528,375c-0.9,1.2,0,3.1-0.8,4.8c0,1.3-0.4,2.9-0.8,4.4
						c0.4,0.3-0.6,0.7-0.2,1.5c-0.3,1.2-0.2,2.9-1.3,4c-1.3,0.6-2.3-0.4-3.2-0.3c-1.2-2.7,0.1-5,0.4-7.4c0.1-3.8-2.5-6.6-5-8.5
						c-1.2-0.3-1.6-0.3-1.9-0.9c0.1-1.5,1.1-2.3,2.3-2.8c1,0.1,1.6-1,2.8-1.1c-0.4-0.8,0.1-1.1,0.6-1.3c1-1,2,0.5,3.2,0.3
						c1.2-0.5,3.8-1,4.6,1.3C528.6,370.6,528.6,372.9,528,375z M549,401.7c-2.8,1.7-4,4.5-6.2,6.8c-1,0.9-1.5,2.3-2.8,3
						c-1,1.4-2.4,1.7-3.1,3.4c-1.3,0.8-3,1.3-3.8,2.8c-1.1-2.3,0.1-4.1,0.6-6c0.1-4.1,0.7-7.6,2.5-11.1c0.3-2.3,1-4.2,1.4-6.2
						c0.2-0.8,0.8-1.1,1.8-0.8c0.1,0.3,0.5,0.2,1.2,0.4c2.1-0.4,2.3,2.6,5,2.5c1.2,0.7,2.9,1.5,4.4,2.3
						C550,399.6,548.7,400.3,549,401.7z"/>
				</g>
				<g>
					<g>
						<path class="st1" d="M93.1,333.4c-2.1,2.1-4.3-1.1-6.4-1.3c-1.3,0-2.7,0.6-3.5,1.6c-1.9,0-3.5,0.6-5.1,1.6
							c-2.4-0.8,0.6-1.9,0.3-3.2c3.5-2.1,5.9-5.9,5.6-9.9c-0.8-1.3,0.6-2.7-0.8-3.5c-2.1-1.1-3.5-2.7-5.6-3.2
							c-2.1-2.7-6.2-4.5-8.9-2.7c0,0.6,0.6,0.8,0.8,1.1c1.6,4,4.5,7.8,3.8,12.3c0,1.6-1.1,3.5-2.7,4.5c-1.9,0.3-3,2.4-4.5,3
							c0.8,1.1,2.7,0.3,3.8,0.8c1.6,1.1,3.2-0.8,4.8,0.3c0.3,0.6-0.3,1.1-0.8,1.3c-4.3,0.8-7.8,3.8-12.3,4.3
							c-3.5,2.1-7.8,1.9-11.3,4c-3.8,2.4-9.1,3-13.4,1.3c-0.6,0.3-1.1,0-1.6,0.6c0.8,2.4,2.7,4.8,5.1,5.6v-0.3c0.3,0,0.6-0.6,0.6,0
							c0.3,0.3,0,0.6,0,1.1c1.6,0,3,0.6,4.5,0.3c2.1,0.3,3.8-1.3,5.9-1.9c0.8-1.9,3.8-1.3,4.5-3c2.1-0.6,4.3-1.3,6.7-2.1
							c1.6-1.1,3.8-0.8,5.4-1.9c1.9,0,3.5-1.3,5.4-1.3c6.4-1.9,13.4-1.9,20.1-1.1c2.4-0.3,4-2.1,4.8-4.5
							C97.6,335,95.2,333.9,93.1,333.4z"/>
						<path class="st1" d="M104.6,350.1c1.9,1.1,0.8,4,2.7,4.8c1.3,0.6,2.4,2.4,3.8,1.1c3.5-1.9,5.1-5.4,7.5-8
							c1.6,0.3,2.1-2.7,3.5-1.3c0.6,1.6-0.6,3-1.1,4.3c0.8,2.4-2.1,3.8-1.6,5.9c-1.1,1.6-1.3,3.8-2.7,4.8c-1.3,3.5-4.5,5.9-7.8,7.8
							c0.3,0.6,0,0.8,0.3,1.1c1.6-0.3,4,1.1,5.1-0.8c2.4,0,4-1.3,5.1-3.2c2.4-0.8,3-3.8,4.8-5.6c0.6-1.6,1.6-3,2.1-4.5
							c0-1.6,1.6-1.9,3-1.6v-0.6h-1.1c-2.4-1.9,1.1-3.5,0.8-5.6c1.3-1.6,0.6-3.2,1.3-5.1c-0.3-1.9,1.9-3,3.2-3.8
							c4.3-1.6,9.6-1.6,14-0.6c1.6,1.9,3.8,0.8,5.6,1.9c0.8-0.8,2.7-1.1,3-2.4c0.6-2.4-0.8-4.3-2.4-5.4c-2.1-3.8-7-2.1-9.6-4.8
							c-1.6-2.1-5.1-1.9-7.2-3.8c-3.5-1.9,0.6-5.9-2.4-8l-1.6-1.1c-1.3-0.3-3.8-0.8-4.8,0.8c-3.8,0.3-0.6,3.5-1.3,5.4
							c0,1.6-1.1,2.4-0.3,4c-1.1,3-2.1,6.4-2.1,9.9s-3.2,5.6-5.9,7.2c-1.9-0.3-1.9,2.7-4,1.9c-2.4-0.6-1.9-3.2-2.1-5.4
							c-0.6-0.8-0.6-1.9-1.6-1.9c-0.8-1.3-2.7-1.9-3.8-2.7c-0.8,0-1.3,0-1.9,0.6c0.6,0.6,0,1.6,0.6,2.4c-0.6,1.6,0.8,3.8-0.3,5.4
							C105.4,345.6,103.2,348,104.6,350.1z"/>
						<path class="st1" d="M61.7,366.1c1.9-2.1,4.8-1.1,6.7-2.7c5.4-2.1,11-3,16.1-5.9c0-1.3,1.1-2.4,1.3-3.5
							c-2.7-0.8-5.6-2.4-8.6-1.9c-2.4,1.1-4.3,3.2-7,3.2c-3.8,1.3-7.8,2.4-11.5,3.2c-1.3,1.6-3-0.6-4.5,0.6
							c-0.8-0.6-1.6-0.3-2.4,0.3c-0.6,0.6,0.3,1.1,0.6,1.6c1.6,1.1,3.2,1.9,5.4,2.1c0.8-0.6,2.1,0,3,0.3c1.1,0.8,0.3,1.9,0.3,2.7
							L61.7,366.1L61.7,366.1z"/>
						<path class="st1" d="M149.8,355.3c-3-0.6-4.5-3.8-7.8-3.5c-0.8,0.3-1.3,0.6-1.9,1.3c-1.9,0.8-4.3,0.6-6.4,1.6
							c1.3,0,2.4-0.3,3.5,0.6c0.6,1.3-0.6,2.1-1.6,3c0.8,0.8,2.4,0.6,3.2,0.6c3.2-0.6,6.4,1.6,9.6,1.3c0.8-0.6,1.9-1.1,2.1-2.1
							l-0.8-0.3c0.3-0.3,0.6-0.6,0.8-0.6C150.3,356.9,150.6,355.8,149.8,355.3z"/>
						<path class="st1" d="M49.4,385.4h4c1.1-0.8,2.4-0.3,3.8-0.8c2.4-0.6,4.3-2.7,6.7-1.9c1.3,1.3,0,3-1.1,4
							c0.8,1.6-1.3,1.1-1.1,2.4c-1.6,1.9-3,3.8-4,5.6c0.8,1.1-0.8,1.3-1.1,2.4l0.6,0.3c0.8-1.6,2.1-2.1,3-3.8c0.3-1.6,2.4-1.6,2.4-3
							c1.6-1.1,3.2-1.9,3.8-3.2c1.3,0.3,0.8-1.3,1.9-1.1c1.6-1.9,4-2.7,5.9-3.5c1.1-0.8,0.8-1.6,0.8-2.7c0.3-0.3,0.8-0.3,1.1,0.3
							c0,0.3,0.6,0.3,1.1,0c1.1-2.4,4.3-1.6,5.9-3.5c3,0,4.8-2.1,7.2-3.2c0.8-0.8,0.8-2.1,0.3-3.2c-1.1-1.3-3-1.3-4.5-2.1h-4.3
							c-1.1-0.8-1.6,0-2.7-0.3c-1.6,2.1-4,2.1-5.6,4c-2.4-0.3-3.5,3.2-5.9,3.2c-0.8-0.8-1.1,0.3-1.9,0.3c-2.1,0.3-3.8,3-6.4,2.4
							c-3.2,1.3-7.2,3-11,1.9c-0.8-0.3-1.3-1.1-1.1-1.9c-1.1-0.3-1.3,0.6-1.9,0.8C43.4,382.4,48,383,49.4,385.4z"/>
						<path class="st1" d="M169,421.1c-0.3-2.2-2.8-3.6-4-5.9c-1.8-1-3.5-2.8-5.9-2.5c-0.8-0.1-1.2-0.9-2.1-0.5
							c-4.3-2.4-8.5-3.6-12.9-5.7c-3.7-2.8-9.2-2.4-12.9-5.2c-1.5-1-1.9-2.4-1.5-4c1-1.5,0.5-4.3,2-5.7l1.2-6.1
							c-0.2-1.1,0.2-1.6,0.6-2.4c-1.2-0.9,0.8-1.8,0-3c1.7-0.9,4.2-1.4,6-0.7c5.3,0.9,7.8,7.1,13.5,6.9c1.1-0.2,1.8-1.4,2.4-2.2
							c3.5-2.1-0.6-4.1-0.9-6.1c-3.6-3.9-8.8-3.1-13.4-3.4c0.4,1.1,2,1.3,1.9,2.6c-1.5,1.2-3,0.2-4.4,0.6c-0.8,0.2-1.4,0.6-2.2,0.6
							c-3.2-0.4-1.5-4-2.3-6.4c-1.2-1.2-2.8-1.9-3.6-3.6c-1.3-0.7-2.8-1.9-4.2-0.8c-1.3,1.7,1.1,2.5,1.4,4.2c0.5,3,1.5,6.4-0.8,9.1
							c1.3,0.7,0.6,1.9,0.5,3c0,0.5-0.9,1.2-0.2,1.9c-1.1,0.7-1.1,2.3-1.2,3.6c-0.2,1.3-1.9,2.2-1.2,3.6c-1.3,1.7-1.5,4.2-3,5.6
							c-1.2,0.9-0.6,2.9-2,3.6c-0.6,0.5,0.4,1.1-0.4,1.3c-0.5,2.4-3,2.9-3.8,5c-1.4,2.8-4,4.2-5.8,6.1c-1.4,0.4-2.1,2.2-3.7,2
							c-2.4,2.4-6.2,2-9.1,2.2c1,0.9,1.7,1.5,2.6,2.7c2,1.3,4.2,1.3,6.6,1.5c2.1-1.7,5.3-1.8,7.4-3.5c2.3-1.3,4.7-3,5.9-4.7
							c2.3-1.3,3.6-3.6,5.5-5.3c0.2-2.1,1.7-3.3,2.2-4.9c-0.2-0.8,1.4-0.6,0.4-1.6c0.9-0.7,0.8-2.1,2.1-2.2l2.8,3.6
							c0.4,3.3,4.5,3.5,6.3,6.4c0.5,0.1,1.6,0.2,1.8,1c4.1,1.8,7.9,3.8,12.1,5.4c0.8,0.6,2,1.3,1.6,2.6c-1.7,0.6-2.5,2.7-4.2,3.3
							c-0.1,0.5-1.1,0.7-0.7,1.5c5.1-0.2,10,2.5,15.4,2.3c1.2-1.2,3.7-1.5,4.4-3.6C169.5,423,170,421.5,169,421.1z"/>
						<path class="st1" d="M109.4,382.9c-1.1-1.1,0.6-5.9-2.1-3.8c-0.3,3.8-3.8,6.7-2.7,10.2c1.9,2.1,1.9,5.6,4.3,7.5
							c3.2,1.6,3-3,4.8-4c-0.3-2.7,2.1-3.8,2.4-5.9c1.3-1.3,3-2.1,3.5-3.8c-2.4,1.3-5.1,3.2-8,3.5
							C108.8,386.4,111.2,384,109.4,382.9z"/>
						<path class="st1" d="M91.2,400.1c0-1.6-0.8-3.8-0.8-5.4l-0.6,0.6c-0.6,0-1.1,0-1.3,0l-1.9-1.6c-2.4-0.8-5.1-1.9-7.8-0.8
							c-3.2,0-4.8,2.4-7.8,3.5c-3.2,0.3-4.8,3.2-7.2,4.3c-2.1,1.1-3.8,3.2-6.2,3.5c-0.6,0.8-1.6,1.6-2.4,1.9
							c-3.2-0.3-0.8-2.7-1.3-4.3c-1.1,0.6-1.1,2.1-2.4,2.4l1.1,1.1c-1.1,2.4-3.2,3.8-4.5,5.9c-1.3,0.6-0.6,1.9-1.1,2.7
							c0.8,2.4,1.6,4.8,1.6,7.5c0.8,1.6,3,1.6,4.3,2.1c1.3-0.6,3.5-0.3,3.5-2.1c2.7-0.8,2.7-3.5,3-5.6c1.3-1.1,0-3.8,2.1-4.8
							c0.8-2.7,3-4.8,5.4-6.2c0-1.3,2.4-0.8,3-2.4c0.3,0,0.6-0.3,0.8,0c1.9-0.8,3.8-3,5.9-1.6c0.8,1.1,0.8,2.4,0.6,3.8
							c-1.1,0.8-0.3,2.4-1.3,3c0,3-3.2,4.8-4,7.5c-1.3,0.3-1.3,2.1-2.7,2.1c-1.1,2.1-4,1.3-5.1,3.2c-0.3,1.6-1.3,3.5-0.3,5.1
							c2.1,1.9,4.5,1.3,7.5,1.1c1.6-1.3,3.5-1.9,5.4-3.2c1.3-0.8,2.1-2.7,3.8-3.2c0.6-1.1,2.4-0.8,2.4-2.4c0.6-2.1,3.2-2.1,3.5-3.8
							c3-2.7,4.3-6.2,4.8-9.9C91.7,403.1,90.9,401.5,91.2,400.1z"/>
					</g>
					<g>
						<path class="st1" d="M44.4,354.9c-0.8,0-1.4-0.1-2-0.2s-1.1-0.2-1.6-0.2h-1.9v-1.2c-2.9-1.3-4.7-4.2-5.5-6.5l-0.4-1.1l0.8-0.8
							c0.8-0.8,1.7-0.9,2.1-0.9c0,0,0,0,0.1,0l0.6-0.3l0.8,0.3c1.4,0.5,3,0.8,4.6,0.8c2.6,0,5.1-0.7,7.1-2s4.2-1.8,6.2-2.3
							c1.9-0.4,3.6-0.9,5.1-1.8l0.4-0.2h0.4c2.1-0.2,4.1-1.1,6.1-2.1c0.2-0.1,0.4-0.2,0.5-0.2h-0.1c-0.7,0-2.3,0-3.3-1.3l-1.6-2.1
							l2.5-0.8c0.3-0.1,0.8-0.6,1.3-0.9c0.8-0.7,1.8-1.6,3.1-2c1-0.8,1.6-2,1.6-2.8V326v-0.2c0.5-2.8-0.8-5.3-2.1-8
							c-0.4-0.9-0.9-1.9-1.3-2.8c-0.4-0.4-1.1-1.1-1.1-2.2v-1l0.8-0.6c1-0.7,2.3-1.1,3.6-1.1c2.6,0,5.4,1.4,7.4,3.7
							c1.3,0.4,2.3,1.2,3.4,1.9c0.7,0.5,1.3,0.9,2.1,1.3h0.1h0.1c1.8,1.1,1.6,2.8,1.5,3.6c0,0.2,0,0.5,0,0.6l0.2,0.4v0.5
							c0.2,3.6-1.3,7.2-4.2,9.8c0.2,0,0.4,0,0.6-0.1c1.1-1,2.7-1.6,4.4-1.6h0.1H87c1.2,0.2,2.2,0.8,3,1.3c0.5,0.3,1.3,0.8,1.6,0.8
							c0,0,0.2-0.1,0.2-0.2l0.8-0.8l1,0.3c4.6,1.1,6.1,3.4,6.5,5.1l0.1,0.6l-0.2,0.5c-1.1,3.4-3.5,5.5-6.4,5.9h-0.2h-0.2
							c-2.7-0.3-5.4-0.5-7.8-0.5c-4.2,0-8.1,0.5-11.5,1.5l-0.3,0.1h-0.3c-0.6,0-1.2,0.2-2,0.6c-0.8,0.3-1.7,0.7-2.8,0.8
							c-0.9,0.5-2,0.8-2.8,0.9c-0.8,0.2-1.5,0.3-2,0.7l-0.2,0.2l-0.2,0.1c-0.6,0.2-1.2,0.4-1.8,0.6c-1.5,0.5-2.9,1-4.4,1.4
							c-0.8,0.9-1.9,1.2-2.7,1.5c-0.5,0.2-1.1,0.4-1.2,0.6l-0.4,0.9l-0.9,0.2c-0.6,0.2-1.3,0.5-1.9,0.8c-1.1,0.6-2.4,1.2-4,1.2
							c-0.2,0-0.3,0-0.4,0C45.1,354.9,44.7,354.9,44.4,354.9z"/>
						<path class="st1" d="M112.2,372.6c-0.6,0-1.1-0.1-1.6-0.2c-0.4,0-0.8-0.1-1-0.1c-0.1,0-0.2,0-0.2,0l-0.9,0.2l-0.7-0.7
							c-0.6-0.6-0.7-1.3-0.7-1.7l-0.8-1.5l1.5-0.9c2.6-1.5,5.8-3.7,7-6.8l0.2-0.5l0.4-0.3c0.4-0.3,0.8-1.1,1.1-2
							c0.2-0.6,0.5-1.2,0.8-1.8c0-1.4,0.6-2.5,1.2-3.3c0.6-0.9,0.7-1.2,0.6-1.6l-0.2-0.7l0.3-0.6c0,0,0-0.1,0.1-0.2
							c-0.4,0.6-0.9,1.1-1.3,1.7c-1.5,2-3.2,4.3-5.8,5.8c-0.8,0.7-1.5,0.8-2.1,0.8l0,0c-1.2,0-2-0.7-2.7-1.2
							c-0.3-0.2-0.6-0.4-0.8-0.5l0,0c-1.9-0.8-2.2-2.5-2.5-3.7c-0.1-0.5-0.2-1.1-0.4-1.2l-0.4-0.2l-0.2-0.4c-1.2-2-0.6-4-0.2-5.5
							c0.2-0.8,0.5-1.6,0.4-2.2l-0.1-0.7l0.4-0.6c0.2-0.3,0.1-1,0-1.7c-0.1-0.8-0.2-1.5-0.1-2.4c-0.2-0.6-0.2-1.1-0.2-1.5l0,0
							l-1.1-1.1l1.3-1.3c1.1-1.1,2.3-1.1,3.2-1.1h0.6l0.5,0.4c0.2,0.2,0.6,0.4,1,0.6c0.9,0.4,1.9,1,2.6,1.9c1.2,0.4,1.7,1.5,1.9,2.1
							c0.1,0.2,0.2,0.4,0.2,0.4l0.2,0.4v0.4c0.1,0.6,0.1,1.1,0.1,1.6c0.1,2,0.2,2.1,0.6,2.2h0.1c0.1-0.1,0.2-0.2,0.2-0.2
							c0.5-0.6,1.3-1.6,2.7-1.7c2.3-1.4,4.5-3.1,4.5-5.3c0-3.6,1-7.1,2-9.9c-0.4-1.3,0-2.3,0.2-3c0.1-0.4,0.2-0.7,0.2-1v-0.4
							l0.1-0.3c0-0.2-0.2-0.8-0.3-1.2c-0.3-1.1-0.8-2.6,0.2-3.9c0.6-0.9,1.5-1.2,2.3-1.4c0.7-0.6,1.8-1.2,3.5-1.2
							c1,0,1.9,0.2,2.6,0.3l0.5,0.1l1.9,1.3l0,0c2.3,1.7,2,4.2,1.8,5.7c-0.2,1.7-0.1,1.9,0.4,2.2l0.2,0.1l0.2,0.2
							c0.7,0.6,1.7,0.9,2.8,1.3c1.6,0.5,3.3,1.1,4.6,2.6c0.8,0.8,2,1,3.4,1.3c2.1,0.4,4.6,1,6.2,3.5c2.4,1.8,3.4,4.4,2.8,7.1
							c-0.4,1.7-1.8,2.5-2.8,3c-0.2,0.1-0.6,0.3-0.7,0.4l-1,1l-1.3-0.7c-0.4-0.2-1-0.3-1.7-0.4c-1.1-0.1-2.6-0.2-4-1.5
							c-1.7-0.4-3.5-0.6-5.3-0.6c-2.5,0-4.9,0.4-6.9,1.1l-0.2,0.1c-0.7,0.4-2,1.2-1.9,1.7l0.1,0.5l-0.2,0.5c-0.2,0.5-0.2,1-0.3,1.7
							c-0.1,0.9-0.2,2.1-0.9,3.3c-0.1,1.1-0.7,2.1-1.2,2.8c-0.1,0.1-0.1,0.2-0.2,0.3h1.7v4.7l-2.3-0.5c-0.2,0-0.4,0-0.5,0
							s-0.1,0-0.2,0v0.1l0.3,0.4c-0.3,0.9-0.8,1.8-1.2,2.6c-0.4,0.7-0.7,1.3-0.9,2l-0.2,0.4l-0.3,0.3c-0.6,0.6-1,1.3-1.5,2.1
							c-0.8,1.3-1.7,2.9-3.4,3.7c-1.3,2.1-3.2,3.3-5.5,3.6C114.6,372.1,113.6,372.6,112.2,372.6z"/>
						<path class="st1" d="M59,368v-1.9c0-0.4,0.1-0.8,0.2-1.1c-0.2-0.1-0.4-0.1-0.6-0.1l-0.4,0.3l-0.7-0.1
							c-2.7-0.4-4.6-1.4-6.2-2.5l-0.4-0.3l-0.2-0.4c0,0-0.1-0.1-0.1-0.2c-1.5-1.9-0.6-3.2-0.1-3.6l0.1-0.1l0.2-0.1
							c0.9-0.6,1.7-0.9,2.5-0.9c0.3,0,0.6,0,0.9,0.1c0.4-0.1,0.7-0.2,1.1-0.2c0.6,0,1.2,0.2,1.7,0.3c0.2,0,0.3,0.1,0.5,0.1l0.4-0.4
							l0.6-0.1c4.1-0.9,7.9-2,11.3-3.2l0.3-0.1h0.3c1.2,0,2.3-0.7,3.6-1.5c0.8-0.5,1.7-1.1,2.6-1.5l0.2-0.1H77
							c0.5-0.1,1-0.1,1.5-0.1c2.1,0,4.2,0.8,6,1.4c0.7,0.2,1.3,0.5,1.9,0.7l1.7,0.5l-0.4,1.7c-0.2,0.7-0.5,1.2-0.8,1.7
							s-0.5,0.9-0.5,1.3v1.1l-0.9,0.6c-3.4,1.9-6.9,3-10.3,4c-1.9,0.6-3.9,1.2-5.8,1.9c-1.2,0.9-2.6,1.1-3.7,1.3
							c-1.3,0.2-2,0.4-2.5,1l-0.6,0.6L59,368L59,368z"/>
						<path class="st1" d="M147.9,362c-1.6,0-3.1-0.4-4.5-0.8c-1.3-0.4-2.4-0.7-3.5-0.7c-0.3,0-0.5,0-0.8,0.1h-0.2h-0.1
							c-0.1,0-0.3,0-0.4,0c-0.3,0-0.6,0-0.8,0c-0.6,0-2.2,0-3.3-1.1l-1.5-1.5c0,0,1.8-1.4,1.9-1.4c-0.3,0-0.6,0-0.9,0L133,353
							c1.4-0.7,2.9-0.9,4.2-1.1c0.7-0.1,1.4-0.2,1.9-0.4c0.8-0.9,1.7-1.3,2.5-1.5l0.2-0.1h0.2c0.2,0,0.4,0,0.5,0
							c2.2,0,3.8,1.2,5.1,2.1c0.9,0.7,1.7,1.3,2.6,1.4l0.4,0.1l0.3,0.2c1.1,0.8,1.3,1.9,1.5,2.5l0.6,0.6l0,0l0,0l2.3,2.3h-3
							c-0.6,1.3-1.7,1.9-2.4,2.4c-0.1,0.1-0.2,0.1-0.3,0.2l-0.4,0.3h-0.5C148.4,362,148.2,362,147.9,362L147.9,362z"/>
						<path class="st1" d="M54.4,398.2l0.4-1.5c0.2-0.7,0.5-1.2,0.9-1.5l-0.2-0.3l0.6-1.1c1-1.8,2.3-3.6,3.8-5.4
							c0.1-0.6,0.4-1.1,0.9-1.5l-0.3-0.6l0.9-0.9c0.4-0.4,0.6-0.7,0.8-0.9c-0.5,0.1-1.1,0.4-1.7,0.8c-0.8,0.4-1.7,0.9-2.8,1.1
							c-0.8,0.3-1.6,0.4-2.2,0.4c-0.4,0-0.8,0-0.9,0.1l-0.5,0.4h-5.8l-0.6-1c-0.3-0.5-1-1-1.7-1.5c-1.5-1.1-4.4-3-2.6-6.7l0.3-0.6
							l0.5-0.2c0,0,0,0,0.1-0.1c0.4-0.3,1.1-1,2.3-1c0.3,0,0.6,0,0.9,0.1l2,0.5l-0.5,1.5c0.6,0.1,1.1,0.2,1.7,0.2
							c2.6,0,5.5-1.2,7.7-2.1l0.5-0.2l0.6,0.1c0.1,0,0.2,0,0.3,0c0.7,0,1.4-0.5,2.2-1c0.9-0.6,1.9-1.3,3.2-1.5
							c0.3-0.2,0.8-0.6,1.7-0.6c0.3,0,0.6,0.1,0.9,0.2c0.4-0.2,0.8-0.6,1.2-1c0.8-0.8,1.9-1.9,3.5-2.1c0.9-0.8,1.8-1.2,2.6-1.7
							c0.9-0.5,1.7-0.9,2.3-1.6l0.8-1l1.2,0.3c0,0,0.2,0,0.3,0c0.2,0,0.6-0.1,0.9-0.1c0.5,0,1,0.1,1.5,0.4h4.2l0.4,0.2
							c0.4,0.2,0.9,0.4,1.5,0.6c1.2,0.4,2.6,0.8,3.7,2.1l0.1,0.2l0.1,0.2c0.9,1.9,0.7,4.1-0.6,5.4l-0.2,0.2l-0.3,0.2
							c-0.7,0.3-1.3,0.7-2.1,1.2c-1.4,0.9-3,1.9-5.2,2.2c-1,0.8-2.1,1.1-3.1,1.4c-1.3,0.4-1.7,0.6-1.9,1l-0.3,0.6l-0.6,0.3
							c-0.4,0.2-0.9,0.4-1.3,0.4c-0.2,0.6-0.6,1.3-1.4,1.9l-0.2,0.1l-0.2,0.1c-0.3,0.1-0.6,0.2-0.8,0.4c-1.6,0.7-3.3,1.3-4.4,2.6
							l-0.8,0.9l-0.3-0.1c-0.3,0.4-0.7,0.7-1.1,0.8c-0.8,1-1.9,1.7-3,2.5c-0.1,0-0.2,0.1-0.2,0.2c-0.4,0.9-1.2,1.5-1.7,1.8
							c-0.2,0.1-0.4,0.3-0.5,0.4v0.2l-0.1,0.2c-0.6,1.1-1.3,1.8-1.8,2.4c-0.5,0.5-0.9,0.9-1.1,1.4l-0.8,1.7L54.4,398.2z"/>
						<path class="st1" d="M164.2,429c-2.7,0-5.3-0.6-7.7-1.2c-2.3-0.6-4.4-1.1-6.4-1.1c-0.2,0-0.4,0-0.6,0h-1.2l-0.6-1.1
							c-0.4-0.7-0.7-1.9,0.6-3.2l0.1-0.6l1.1-0.4c0.4-0.2,0.9-0.6,1.3-1.1c0.3-0.4,0.7-0.8,1.1-1.1c0,0-0.2-0.1-0.2-0.2
							c-2.6-1-5.1-2.2-7.6-3.3c-1.4-0.7-2.9-1.3-4.4-2l-0.9-0.4l-0.1-0.4c-0.1,0-0.2,0-0.2,0l-0.9-0.1l-0.5-0.8
							c-0.6-0.9-1.5-1.5-2.5-2.1c-1.5-0.9-3.4-2.1-3.9-4.4l-1-1.3c-0.1,0.7-0.5,1.1-0.8,1.3c-0.3,0.8-0.7,1.5-1.1,2.1
							c-0.5,0.8-0.9,1.4-1,2.3l-0.1,0.7l-0.5,0.5c-0.6,0.5-1.1,1.1-1.7,1.8c-1,1.2-2.2,2.5-3.8,3.6c-1.2,1.6-3.2,3.1-6.1,4.9
							c-1.3,1-2.7,1.5-4.2,2c-1.2,0.4-2.4,0.8-3.1,1.4l-0.6,0.5l-0.8-0.1c-0.4,0-0.8-0.1-1.1-0.1c-2.1-0.2-4.2-0.4-6.2-1.7l-0.3-0.2
							l-0.2-0.2c-0.7-0.9-1.3-1.4-2-2.1c-0.2-0.2-0.3-0.3-0.5-0.5l-3.2-3l4.3-0.3c0.6,0,1.2,0,1.8-0.1c2.4-0.1,4.7-0.2,6.2-1.6
							l0.6-0.6l0.9,0.1c0.2,0,0.5-0.4,0.8-0.6c0.4-0.4,1-0.9,1.7-1.2c0.6-0.6,1.2-1.1,1.9-1.7c1.3-1.1,2.5-2.1,3.3-3.6
							c0.6-1.3,1.5-2.2,2.3-2.9c0.8-0.7,1.2-1.1,1.4-1.7l0.3-1.2l0,0c0.2-0.6,0.5-0.9,0.8-1.2l0.2-0.2h0.1c0-0.1,0.1-0.4,0.2-0.6
							c0.2-0.8,0.5-1.9,1.5-2.7c0.6-0.6,0.9-1.4,1.3-2.4c0.3-0.7,0.6-1.4,1-2.2c-0.1-1.3,0.6-2.3,1-2.9c0.2-0.2,0.4-0.5,0.4-0.6
							c0-0.2,0-0.4,0-0.6c0.1-0.9,0.2-2.3,0.9-3.3c0-0.5,0.1-1.1,0.5-1.7c0,0,0,0,0-0.1c0-0.2,0.1-0.5,0.1-0.7c0-0.1,0-0.2,0.1-0.4
							l-1.7-0.9l1.4-1.8c1.4-1.7,1-3.9,0.6-6.4c-0.1-0.4-0.1-0.8-0.2-1.1c0-0.2-0.4-0.5-0.6-0.8c-0.7-0.8-2.2-2.6-0.6-4.9l0.2-0.2
							l0.2-0.2c0.8-0.6,1.6-0.9,2.5-0.9c1.3,0,2.4,0.6,3.3,1.1c0.2,0.1,0.4,0.2,0.6,0.3l0.5,0.3l0.3,0.5c0.4,0.8,1,1.3,1.9,1.9
							c0.5,0.4,0.9,0.8,1.5,1.2l0.3,0.3l0.2,0.4c0.4,1.1,0.4,2.3,0.3,3.4c0,0.5,0,1.4,0.1,1.7c0,0,0.1,0,0.3,0
							c0.1,0,0.3-0.1,0.5-0.2c0.3-0.1,0.7-0.3,1.1-0.4c0.4-0.1,0.8-0.2,1.2-0.2c0.1,0,0.2,0,0.2,0c-0.1-0.2-0.2-0.4-0.3-0.6l-1-2.7
							l2.9,0.2c0.8,0,1.6,0,2.4,0.1c4.1,0,8.7,0.1,12.3,3.9l0.4,0.4l0.1,0.6c0,0.2,0.5,0.7,0.8,1.1c0.8,1,1.9,2.4,1.5,4.1
							c-0.2,1-0.8,1.9-1.9,2.6c0,0.1-0.1,0.2-0.2,0.2c-0.6,0.9-1.6,2.1-3.2,2.4h-0.1h-0.1c-0.1,0-0.2,0-0.3,0
							c-3.6,0-6.1-2.1-8.4-3.9c-1.7-1.4-3.3-2.7-5.2-3h-0.2l-0.2-0.1c-0.4-0.2-0.8-0.2-1.2-0.2c-0.7,0-1.4,0.1-2.1,0.4
							c-0.1,0.3-0.2,0.5-0.2,0.7l0.6,0.4l-0.6,1.4l-0.1,0.3c-0.3,0.6-0.3,0.6-0.2,1.1v0.3l-1.4,7l-0.4,0.4c-0.4,0.4-0.6,1.3-0.7,2.2
							c-0.2,0.9-0.3,1.9-0.8,2.8c-0.2,0.8,0.1,1.3,0.7,1.6h0.1l0,0c1.5,1.2,3.6,1.7,5.8,2.3c2.4,0.6,4.8,1.3,7,2.8
							c1.7,0.8,3.5,1.5,5.2,2.3c2.3,0.9,4.6,1.9,7,3.1c0.1,0,0.2,0,0.2,0c0.8,0,1.4,0.4,1.8,0.6c0,0,0,0,0.1,0s0.2,0,0.3,0
							c2.2,0,3.9,1.1,5.2,2.1c0.4,0.3,0.8,0.6,1.2,0.8l0.5,0.3l0.2,0.6c0.4,0.8,1,1.4,1.6,2.1c0.9,0.9,1.9,2,2.3,3.4
							c0.3,0.3,0.6,0.7,0.7,1.1c0.4,1.3,0,2.6-0.4,3.3c-0.8,1.9-2.4,2.7-3.6,3.3c-0.5,0.3-1,0.5-1.3,0.8l-0.5,0.5h-0.8
							C164.6,429,164.4,429,164.2,429z"/>
						<path class="st1" d="M110,399.1c-0.7,0-1.3-0.2-2.1-0.6l-0.2-0.1l-0.2-0.1c-1.8-1.4-2.5-3.3-3.1-4.9c-0.4-1.1-0.8-2.1-1.4-2.8
							l-0.3-0.3l-0.1-0.4c-0.8-2.7,0.3-5,1.3-7.1c0.6-1.3,1.2-2.6,1.3-3.8v-0.8l0.6-0.5c0.5-0.4,1.3-0.9,2.3-0.9
							c2.5,0,2.5,2.7,2.5,3.9c0,0.3,0,0.8,0,1.1c1.1,0.9,1.2,2.3,1.2,3c1.8-0.4,3.5-1.4,5.3-2.4c0.5-0.3,0.9-0.5,1.3-0.8l4.3-2.4
							l-1.5,4.6c-0.6,1.6-1.7,2.6-2.8,3.5c-0.3,0.2-0.5,0.4-0.8,0.6c-0.3,1-0.9,1.9-1.3,2.5c-0.7,0.9-1,1.4-0.9,2.2l0.1,1.2
							l-1.1,0.6c-0.2,0.2-0.5,0.9-0.7,1.3C113.3,397,112.4,399.1,110,399.1z"/>
						<path class="st1" d="M67.5,428.6c-1.3,0-3.4-0.2-5.2-1.8l-0.2-0.2l-0.2-0.2c-1.3-1.9-0.7-3.9-0.3-5.4c0.1-0.4,0.2-0.8,0.3-1.1
							v-0.3l0.2-0.3c0.9-1.5,2.4-2,3.5-2.3c0.9-0.3,1.3-0.4,1.5-0.8l0.5-1h0.8c0-0.1,0.1-0.1,0.1-0.2c0.3-0.4,0.7-1.1,1.4-1.5
							c0.5-1.1,1.2-2.1,1.9-2.9c0.9-1.1,1.7-2.2,1.7-3.2v-1.2l0.7-0.3v-0.1c0.1-0.6,0.2-1.4,0.8-2.2c0.1-0.7,0-1.1-0.1-1.4h-0.1
							c-0.5,0-1.3,0.5-1.9,0.9s-1.1,0.7-1.8,1l-0.7,0.3c-0.6,0.6-1.4,0.9-1.9,1.1v0.4l-1,0.6c-2.3,1.3-3.9,3.1-4.5,5.1l-0.2,0.8
							l-0.7,0.4c-0.2,0.1-0.3,0.2-0.4,1.3c-0.1,0.8-0.2,1.8-0.8,2.7l0,0c-0.2,1.8-0.5,4.7-3.1,6.1c-0.7,1.7-2.6,2.1-3.6,2.3
							c-0.3,0.1-0.7,0.1-0.9,0.2l-0.7,0.3l-0.7-0.3c-0.2-0.1-0.6-0.2-1-0.3c-1.3-0.3-3.3-0.8-4.3-2.8l-0.2-0.4v-0.4
							c0-2.4-0.8-4.6-1.5-6.9l-0.3-0.9l0.4-0.6c0-0.1,0-0.2,0-0.2c0-0.6,0-2.1,1.4-3c0.6-0.9,1.3-1.6,1.9-2.3
							c0.6-0.6,1.1-1.2,1.5-1.8l-2.6-2.6l3.4-0.7c0.1-0.1,0.2-0.3,0.2-0.4c0.3-0.6,0.8-1.4,1.8-1.9l1.9-1l0.7,2.1
							c0.3,0.9,0.2,1.7,0,2.4c0.2-0.1,0.3-0.3,0.4-0.4l0.5-0.8l0.9-0.1c1-0.1,1.9-0.8,3-1.6c0.8-0.6,1.6-1.2,2.5-1.7h0.1
							c0.7-0.3,1.4-0.9,2.1-1.5c1.3-1.1,3-2.6,5.5-2.9c0.9-0.4,1.6-0.8,2.4-1.4c1.5-0.9,3.1-2.1,5.5-2.1c0.9-0.3,1.8-0.5,2.8-0.5
							c2,0,3.8,0.6,5.4,1.1l0.9,0.3l1.5,1.3l3.2-3.1v4.5c0,0.6,0.2,1.5,0.4,2.3c0.2,1,0.4,2.1,0.4,3.1v0.2v0.2c0,0.2,0,0.7,0,1.1
							c0.1,0.8,0.2,2-0.4,3c-0.7,4.3-2.3,7.6-5,10.2c-0.5,1.1-1.5,1.7-2.2,2.2c-0.6,0.4-0.9,0.6-1.1,0.9c-0.2,1.9-1.7,2.6-2.3,2.9
							c-0.1,0-0.2,0.1-0.3,0.2l-0.3,0.6l-0.8,0.2c-0.4,0.2-0.9,0.7-1.4,1.2c-0.5,0.6-1.1,1.3-1.9,1.7c-0.9,0.7-1.9,1.1-2.7,1.6
							c-0.9,0.5-1.7,0.9-2.5,1.5l-0.4,0.4h-0.6c-0.4,0-0.7,0.1-1,0.1C69.3,428.5,68.4,428.6,67.5,428.6L67.5,428.6z"/>
					</g>
				</g>
				<g>
					<g>
						<path d="M311.6,384.8c0.8-3-1.8-5.4,0.2-8.3c-1.5-1.9,0.8-3-0.6-4.9c0.9-6.1-1.2-12.6,0.5-19c-0.3-4.9-1.3-9.1,0-14.4
							c-1.5-0.8,0.4-1.9,0.4-3c-1.9-1.6,0.8-2.6,0.1-3.8c-0.7-2.3-1.8-3.5-2.9-5.4c-3,0.7-2.2-3.1-4.5-4.3c-0.8,0-1.9-0.4-2.3,0.7
							c-1.5,0.7-0.7-1.5-1.9-1.9c-2.6-0.4-4.5-2.8-7.2-2.5v1.1c-2.2-2.3-6.4-4.4-10.2-4c0,0.4,0.4,0.8,0,0.8c0,1.1,1.1,0.8,1.9,0.8
							c2.6,2.7,6,4.3,8.6,7c2.2,3.1,5.6,5.5,6.2,8.9c0.9,7.2,0.8,14.4,2.5,21.7l-1.3,5.3c0,1.5,1.5,3.1,0.3,4.2
							c-0.1,4.9,1.7,9.2,0.4,13.7c0.3,1.9,0.3,3.8,1,5.7c-1.6,3.4-1.7,7.6-1.4,11c-0.4,2.6-0.2,6.4-2.8,8.7
							c-3.1,1.1-6.1-0.5-9.5-0.2c-1.1-0.4-3,0.3-4.5-0.1c-3-1.6-4.5-0.5-7.6-1.3c1.9,1.2,3,3.1,4.8,4.3c4.2-0.7,4.8,4.3,7.8,5.9
							c-2,2.6,2.2,4.2,3.7,5.4c2.3,1.6,5.6,3.2,8.3,1.7l0.8,1.1c1.9-0.3,4.9,2.4,6.1-0.2c2.7-0.7,1.6-3.8,3.2-5.6
							C313.8,404.2,311.8,393.9,311.6,384.8z"/>
						<path d="M261.2,367.2c-0.8-0.4-0.8-1.1-1.9-1.2c-2.6-2-7.2-2.1-8.2-5.5c1.5-0.7,2.4-3.4,4.2-2.9c1.9-2.2,6.2-4.4,5.9-7.4
							c-1.4-3.8-5.3-1.7-7.9-3.2c-1.1,0.8-3.8-0.1-5.3-0.9c0.2-7.2-3.1-13-4.9-19.1c-2.6-2.3-4.8-5.8-7.8-7
							c-1.2,1.5-1.5-0.8-1.9-1.2c-2.6-1.2-5.3,0.2-6.9,1.3c-0.8,1.9,0.7,3.4,2.2,5c0.4,0.4,0,1.9,1.1,1.9c1.1-0.4,0.4-1.9,1.2-2.3
							c1.5-0.4,1.9,1.2,3,1.6c0.7,1.5,2.2,3.5,1.4,4.6c2.3,0.4,1.1,3.4,2.9,4.6c-0.1,4.2,2.8,8.8,1.2,12.9c-1.9,1.1-1.9-1.2-3-1.6
							c0.3,2.3,1.4,4.2,2.1,6.5c-2,5.3-8.1,6.6-12.4,10c-1.1,0-1.5,1.5-3,1.1c-4.3,3.7-10,4.3-14.9,6.5c-1.5,0-3.4-0.5-4.9,0.3
							c-1.1-0.4-2.6-2-3.8-1.6c0.8,0.4,1.5,1.2,1.5,2.3c1.9,1.6,4.5,1.6,7.2,1.3c2.3,0.4,4.9,0.9,7.2,1.7c0.8,1.1,0,2.3-0.4,3
							c-0.8,0.4,0.4,1.1-0.8,1.5c-1.2,2.3-3.9,4.1-4,7.1c0,1.1-1.1,0.7-1.9,1.1c-0.8,3-5,2.2-6.6,4.8c0.4,0.8-0.4,0.8-0.8,1.5
							c-0.8-0.4-0.4-1.1-0.7-1.5c-1.9,0.7-2.3,3-2.4,4.5c0.3,1.9,1.8,3.1,3.7,4.3c4.9,1.6,9.2-2.5,13.1-5c1.2-2.6,3.5-2.2,5.4-3.7
							c1.2-2.3,4.6-1.4,5.8-3.6c4.2-1.4,7.7-4,11.9-4.7c1.5,0.4,0.4,1.5,0,2.3c0.7,3-0.9,6.1-1.3,9.1c-2,3-2.5,6.8-3.7,10.2
							c-3.1,2.2-3.2,6-6.2,7.4c-0.8,0.8-1.9-0.4-1.9,1.1c2.3,0.8,6.5-1,6.8,2.8c-0.4,0.8-0.8,1.9-1.9,1.9c2.6,0.8,4.9-1,7.2-0.9
							c1.1-1.1,3.1-1.8,3.9-3.3c2.3-2.2,3.2-6,4.4-9c0.8-0.8,0.4-2.3,0.8-3c0.8-0.8,1.2-1.1,0.8-2.3c2.8-4.1,0.9-8.7,2.2-13.2
							c-0.3-1.9,1.2-3.4-0.2-5.3c1.9-1.9,4.3-3.7,6.9-3.6c2.7-3,8-2.1,10-6.6c0-1.5,0.1-3-1-4.2C263.5,367.3,262,366.5,261.2,367.2z
							 M239,375.8c-4.6,2.2-10.4,5.1-15.4,7.6c-1.1,0.4-1.6,1.9-3.1,1.8c-3.4,0.3-5.8,4.8-10,3.2l0.4-1.5c3.5-3.7,7-8.2,11.6-10.4
							c1.5-1.5,3.8-1.8,5.4-3.3c2.4-4.1,7.3-4,10.4-6.6c0.8,0,2.3,0,1.9,1.2C239.9,370.5,240.9,373.6,239,375.8z"/>
						<path d="M262.3,322.4c-0.7-2.3-2.6-2-4.1-2.8c-2.7,0.7-5.3-0.5-6.9,1.3c2.3,0.4,4.1,2.4,5.6,3.9c0.3,4.5-3.6,7.5-5.9,10.5
							c2.3-0.7,5.3-0.2,7.2,1.3c2.6-0.3,4.1,2.8,6.8,1.7c1.5-0.4,2.3-1.9,3.5-2.6c1.2-3-0.6-5.3-0.9-8
							C266,326,265.7,322.5,262.3,322.4z"/>
						<path d="M227.9,346.7c1.9-0.7,0.8-3.4,2.4-4.5c-0.3-3.4,2.8-5.6,2.9-9.1c-1.9,2.2-5,3.3-8.1,3.6c-0.7-1.9-3.8-1.6-4.5-3.9
							c-2.3,0-4.1-2.4-6-3.2c-0.5,4.2,3.3,5.8,3.6,9.2C221.2,341.9,223,347.3,227.9,346.7z"/>
						<path d="M287.7,378.6c-0.6-4.6-0.1-11,0-15.9c-0.3-2.6-0.6-4.9-1.7-6.9c-0.6-6.1-6.2-8.9-11.5-10.2c0.3,2.3,1.8,4.6,1.7,7.2
							c2.5,6.1,0.8,12.2,1.1,18.6c-0.8,1.1-0.8,3,0.7,3.4c0.3,1.9,1.8,3.5,1.4,5.3c0.3,1.9,1.8,3.1,2.2,4.2c0.8,1.1,1.9,1.2,3,1.2
							C287.1,384.6,286.5,380.8,287.7,378.6z"/>
					</g>
					<g>
						<path class="st1" d="M306.8,421.2c-0.8,0-1.5-0.3-2.3-0.5c-0.6-0.2-1.3-0.4-1.8-0.4c-0.1,0-0.2,0-0.2,0l-0.5,0.1l-0.6-1
							c-0.6,0.2-1.3,0.4-2.1,0.4c-2.4,0-4.8-1.3-6.4-2.4l0,0c-0.3-0.2-0.7-0.5-1.1-0.7c-1.3-0.9-3-1.9-3.4-3.5c-0.1-0.5,0-1,0.2-1.6
							c-0.9-0.7-1.7-1.7-2.3-2.6c-1.1-1.5-2-2.8-3.7-2.8c-0.2,0-0.4,0-0.6,0h-0.3l-0.2-0.2c-1-0.6-1.8-1.5-2.6-2.3
							c-0.7-0.8-1.4-1.5-2.3-2l0.6-1.4c1.1,0.3,2.1,0.3,3,0.4c1.3,0,2.7,0,4.6,1c0.2,0.1,0.6,0.1,0.9,0.1c0.4,0,0.8,0,1.2-0.1
							c0.4,0,0.8-0.1,1.2-0.1s0.7,0,1,0.1c0.3,0,0.6,0,0.8,0c1.2,0,2.3,0.2,3.4,0.4c1,0.2,1.9,0.3,2.8,0.3c0.7,0,1.4-0.1,2-0.3
							c1.8-1.5,2.1-4,2.3-6.2c0.1-0.6,0.1-1.2,0.2-1.7c-0.4-4.4,0.1-8.1,1.3-11c-0.4-1.3-0.6-2.5-0.7-3.7c-0.1-0.6-0.1-1.3-0.2-1.9
							v-0.2v-0.2c0.7-2.6,0.4-5.1,0-7.8c-0.2-1.8-0.5-3.7-0.5-5.7v-0.3l0.2-0.2c0.3-0.3,0.3-0.7-0.1-1.7c-0.2-0.6-0.4-1.3-0.4-2
							v-0.1l1.2-5.2c-1.1-4.5-1.4-9.1-1.7-13.5c-0.2-2.6-0.4-5.4-0.8-8.1c-0.4-2.1-2-3.8-3.6-5.6c-0.8-0.9-1.7-1.9-2.5-2.9
							c-1.2-1.3-2.6-2.3-4.2-3.4c-1.4-1-2.8-2.1-4.2-3.4h-0.1c-0.2,0-0.3,0-0.5,0c-0.4,0-0.9,0-1.3-0.4c-0.3-0.3-0.4-0.7-0.4-1.2
							v-1.4h0.7c0.3,0,0.5,0,0.8,0c3.3,0,6.5,1.5,8.7,3.2v-0.2l0.7-0.1c0.2,0,0.4,0,0.6,0c1.5,0,2.7,0.7,3.9,1.3
							c0.9,0.5,1.9,1,2.8,1.2h0.1h0.1c0.9,0.3,1.1,1.2,1.2,1.7l0,0c0.3-0.4,0.8-0.7,1.6-0.7c0.2,0,0.5,0,0.7,0s0.3,0,0.4,0h0.2
							l0.2,0.1c1.2,0.6,1.7,1.8,2.1,2.7c0.5,1.1,0.7,1.5,1.3,1.5c0.2,0,0.3,0,0.5-0.1l0.6-0.1l0.3,0.5c0.3,0.6,0.7,1.1,1,1.6
							c0.8,1.1,1.5,2.2,2,3.9c0.5,0.8,0,1.6-0.4,2.1c-0.4,0.7-0.5,0.9,0,1.4l0.3,0.2v0.4c0,0.6-0.4,1.2-0.7,1.6
							c-0.1,0.2-0.3,0.4-0.4,0.6c0,0,0.1,0,0.2,0.1l0.5,0.3l-0.1,0.6c-0.9,3.8-0.6,7-0.3,10.4c0.1,1.2,0.2,2.5,0.3,3.8v0.1v0.1
							c-0.9,3.5-0.7,7-0.4,10.5c0.2,2.7,0.4,5.5,0,8.1c0.8,1.1,0.5,2.1,0.3,2.8c-0.2,0.7-0.3,1.1,0.2,1.8l0.3,0.4l-0.3,0.4
							c-0.9,1.4-0.6,2.7-0.3,4.1c0.3,1.1,0.6,2.5,0.2,3.9c0,2.7,0.3,5.5,0.5,8.4c0.5,6.8,1.1,13.8-0.4,20.5v0.2l-0.1,0.2
							c-0.5,0.6-0.7,1.4-0.9,2.3c-0.3,1.3-0.6,2.8-2.4,3.5C308.5,420.7,307.8,421.2,306.8,421.2L306.8,421.2z"/>
						<path class="st1" d="M230.7,419.8c-0.6,0-1.1-0.1-1.7-0.2l0.2-1.5c0.5,0,0.7-0.4,1.1-1.1v-0.1c-0.2-1.4-1.1-1.7-3-1.7h-0.8
							c-0.8,0-1.7,0-2.5-0.3l-0.5-0.2v-0.6c0-1.4,0.9-1.6,1.4-1.6c0.1,0,0.2,0,0.3,0s0.2,0,0.2,0c0.2,0,0.2,0,0.2-0.1l0.1-0.1h0.1
							c1.4-0.7,2.1-1.9,2.9-3.3c0.8-1.3,1.5-2.8,3-3.9c0.4-1,0.7-2.1,0.9-3.2c0.6-2.3,1.3-4.7,2.6-6.8c0.2-1,0.4-2,0.7-2.9
							c0.6-2,1.1-3.8,0.6-5.7l-0.1-0.3l0.1-0.2c0.1-0.2,0.2-0.4,0.3-0.5s0.3-0.4,0.4-0.6l0,0c-2.3,0.4-4.5,1.4-6.7,2.5
							c-1.5,0.7-3,1.4-4.6,2c-0.8,1.2-2.1,1.6-3.2,1.9c-1.1,0.3-2,0.6-2.5,1.5l-0.1,0.2l-0.1,0.1c-0.8,0.6-1.7,0.9-2.4,1.2
							c-1.2,0.4-2.1,0.8-2.8,2.2l-0.1,0.2l-0.2,0.1c-0.6,0.4-1.3,0.9-1.9,1.3c-2.7,1.9-5.8,4.2-9.3,4.2c-0.9,0-1.7-0.2-2.5-0.4h-0.1
							h-0.1c-1.8-1.1-3.6-2.5-4-4.8V397v-0.1c0.1-2.6,1.1-4.5,2.9-5.2l0.5-0.2l0.4,0.4c0.1,0.1,0.2,0.2,0.2,0.3l0.1-0.2
							c0.9-1.5,2.4-2,3.7-2.5c1.5-0.6,2.5-0.9,2.8-2.1l0.1-0.4l0.3-0.2c0.4-0.2,0.8-0.2,1-0.2s0.4,0,0.4-0.1c0,0,0,0,0-0.1
							c0-2.3,1.4-3.9,2.6-5.4c0.6-0.7,1.1-1.4,1.5-2.1l0.2-0.3l0.3-0.1c0-0.2-0.1-0.9,0.4-1.3c0,0,0,0,0-0.1
							c0.4-0.7,0.7-1.3,0.4-1.8c-1.9-0.6-4-1-5.9-1.4l-0.8-0.2c-0.8,0.1-1.6,0.2-2.3,0.2c-2.3,0-4.1-0.6-5.4-1.7l-0.3-0.2v0
							c0-0.9-0.8-1.5-1.1-1.6l-1.6-0.9l1.7-0.6c0.2,0,0.4-0.1,0.6-0.1c0.9,0,1.7,0.6,2.5,1.1c0.3,0.2,0.6,0.4,0.9,0.6
							c0.6-0.2,1.3-0.4,2.2-0.4c0.6,0,1.1,0,1.6,0.1c0.3,0,0.7,0,0.9,0.1c1.7-0.7,3.4-1.3,5.1-1.8c3.5-1.1,6.8-2.1,9.5-4.5l0.3-0.3
							l0.4,0.1c0.1,0,0.2,0,0.3,0c0.3,0,0.5-0.2,0.9-0.4c0.4-0.3,0.8-0.6,1.4-0.7c1.4-1,2.9-1.9,4.4-2.7c3.1-1.7,6.1-3.4,7.4-6.5
							c-0.2-0.7-0.5-1.4-0.8-2.1c-0.5-1.3-1.1-2.7-1.3-4.2l-0.2-1.2l1.2,0.4c0.7,0.2,1,0.8,1.3,1.2c0.2,0.4,0.4,0.6,0.6,0.6
							c0,0,0.2,0,0.3-0.1c0.8-2.2,0.2-4.6-0.5-7.1c-0.4-1.6-0.8-3.3-0.9-4.9c-0.8-0.7-1.1-1.7-1.3-2.6c-0.2-1.1-0.4-1.5-1.1-1.7
							l-1.1-0.2l0.7-0.9c0.4-0.5-0.4-1.8-0.9-2.7c-0.2-0.3-0.3-0.6-0.5-0.9c-0.4-0.2-0.8-0.6-1-0.8c-0.4-0.4-0.6-0.6-1-0.6l0,0
							c0,0.1,0,0.2,0,0.4c-0.1,0.6-0.2,1.6-1.3,1.9h-0.1h-0.1c-1.4,0-1.5-1.3-1.6-1.9c0-0.1,0-0.2,0-0.3c-1.5-1.6-3.2-3.4-2.3-5.7
							l0.1-0.2l0.2-0.1c1.8-1.3,3.6-1.9,5.2-1.9c0.8,0,1.7,0.2,2.4,0.5l0.1,0.1l0.1,0.1c0.2,0.2,0.3,0.5,0.4,0.8
							c0,0.1,0.2,0.4,0.2,0.5c0,0,0,0,0.1-0.1l0.4-0.4l0.5,0.2c2.2,0.9,3.9,2.8,5.6,4.6c0.8,0.9,1.6,1.8,2.5,2.5l0.2,0.2l0.1,0.2
							c0.5,1.8,1.1,3.5,1.8,5.3c1.5,4.2,3.1,8.5,3.1,13.6c1,0.4,2.3,0.9,3.3,0.9c0.4,0,0.6,0,0.8-0.2l0.4-0.2l0.4,0.2
							c0.8,0.5,1.9,0.6,3,0.6c1.9,0.1,4.2,0.2,5.2,3v0.1v0.1c0.2,2.5-2,4.4-4,6.1c-0.8,0.7-1.5,1.3-2.1,1.9l-0.3,0.4l-0.4-0.1
							c-0.1,0-0.2,0-0.2,0c-0.6,0-1.1,0.6-1.7,1.3c-0.4,0.4-0.8,0.9-1.2,1.2c0.8,1.5,2.5,2.2,4.3,2.9c1.1,0.4,2.3,0.9,3.3,1.6
							c0.9,0.1,1.3,0.6,1.5,0.9l0.1,0.1c0.2-0.1,0.6-0.2,0.9-0.2c0.5,0,1,0.1,1.5,0.2c0.3,0.1,0.6,0.1,0.7,0.2h0.3l0.2,0.2
							c1.3,1.4,1.3,3.2,1.3,4.7v0.2l-0.1,0.2c-1.3,2.9-3.8,3.8-6.1,4.6c-1.6,0.6-3,1.1-4.1,2.2l-0.2,0.2h0c-2.2,0-4.1,1.5-5.8,3
							c0.7,1.2,0.4,2.4,0.2,3.3c-0.2,0.6-0.3,1.2-0.2,1.8v0.2v0.2c-0.5,1.7-0.5,3.5-0.5,5.3c0,2.6,0,5.3-1.6,7.9
							c0.3,1.3-0.3,1.9-1,2.6c-0.1,0.2-0.1,0.5-0.1,0.8c-0.1,0.7-0.2,1.5-0.7,2.2c-0.3,0.7-0.5,1.3-0.8,2.1c-0.9,2.5-1.8,5.1-3.7,7
							c-0.6,1.1-1.6,1.7-2.6,2.4c-0.5,0.4-1,0.7-1.4,1.1l-0.2,0.2h-0.4c-0.8,0-1.6,0.3-2.5,0.5C232.9,419.5,231.8,419.8,230.7,419.8
							z M211.5,387.9c0.3,0.1,0.6,0.1,0.8,0.1c1.4,0,2.6-0.8,4-1.7c1.3-0.8,2.6-1.7,4.2-1.9l0,0l0,0c0.6,0,0.9-0.3,1.3-0.8
							c0.4-0.4,0.8-0.8,1.4-1c4.2-2.1,10.4-5.2,15.2-7.5c1-1.3,1-2.9,0.9-4.6c0-0.9,0-1.9,0.1-2.9v-0.1v-0.1
							c-0.2-0.1-0.4-0.1-0.9-0.1c-1.3,1-2.8,1.6-4.2,2.2c-2.3,0.9-4.5,1.8-5.8,4v0.1l-0.1,0.1c-0.9,0.8-1.9,1.3-2.9,1.8
							c-0.9,0.4-1.8,0.9-2.5,1.5l-0.1,0.1h-0.1c-3.7,1.7-6.6,5-9.6,8.2c-0.6,0.6-1.1,1.3-1.7,1.9L211.5,387.9z"/>
						<path class="st1" d="M263.8,339.4c-1.1,0-2.1-0.5-2.9-1s-1.5-0.9-2.4-0.9c-0.1,0-0.2,0-0.3,0h-0.3l-0.2-0.2
							c-1.1-0.9-2.7-1.5-4.4-1.5c-0.7,0-1.4,0.1-2.1,0.3l-2.3,0.7l1.5-1.9c0.5-0.7,1.1-1.3,1.7-2c2.1-2.3,4.2-4.6,4.1-7.7
							c-1.4-1.4-3-3.1-5-3.5l-1.3-0.2l0.8-1c1.1-1.3,2.6-1.4,3.9-1.4c0.2,0,0.4,0,0.6,0s0.4,0,0.6,0c0.7,0,1.5,0,2.2-0.2l0.3-0.1
							l0.3,0.1c0.4,0.2,0.8,0.3,1.2,0.4c1.1,0.3,2.4,0.7,3,2.3c2.5,0.3,3.5,2.3,4.2,3.9c0.3,0.7,0.6,1.3,1,1.8l0.1,0.2v0.2
							c0.1,0.8,0.4,1.6,0.6,2.5c0.6,1.7,1.2,3.7,0.3,5.9l-0.1,0.2l-0.2,0.1c-0.4,0.2-0.7,0.6-1.1,0.9c-0.7,0.7-1.5,1.5-2.6,1.7
							C264.7,339.4,264.3,339.4,263.8,339.4L263.8,339.4z"/>
						<path class="st1" d="M227.1,347.5c-3.5,0-5.4-2.7-7.3-5.3c-0.7-1-1.4-2-2.2-2.8l-0.2-0.2v-0.3c-0.1-1.3-0.8-2.4-1.6-3.5
							c-1.1-1.5-2.3-3.2-2-5.9l0.1-1l0.9,0.4c0.8,0.3,1.5,0.9,2.3,1.4c1.1,0.8,2.3,1.7,3.4,1.7h0.6l0.2,0.5c0.3,0.9,1.1,1.3,2,1.7
							c0.8,0.4,1.7,0.8,2.2,1.6c3-0.4,5.5-1.5,7-3.3l1.4-1.6v2.1c0,1.8-0.8,3.2-1.5,4.6c-0.8,1.4-1.5,2.7-1.3,4.3v0.4l-0.4,0.2
							c-0.5,0.3-0.6,1-0.7,1.7c-0.2,1-0.4,2.3-1.9,2.9H228l0,0C227.7,347.5,227.4,347.5,227.1,347.5L227.1,347.5z"/>
						<path class="st1" d="M284.4,386.5c-1.2,0-2.7-0.1-3.6-1.6v-0.1v-0.1c-0.1-0.4-0.4-0.8-0.7-1.2c-0.6-0.8-1.3-1.8-1.5-3.1v-0.2
							V380c0.2-0.9-0.2-1.8-0.6-2.8c-0.3-0.6-0.5-1.2-0.7-1.9c-0.6-0.3-0.9-0.7-1.1-1.3c-0.3-0.9-0.2-2,0.4-2.9c0-2,0-3.9,0.2-5.8
							c0.2-4.3,0.5-8.3-1.2-12.3l-0.1-0.2v-0.2c0-1.4-0.4-2.8-0.9-4.2c-0.3-0.9-0.7-2-0.8-3l-0.2-1.1l1.1,0.3
							c7.3,1.7,11.5,5.4,12.1,10.6c1.1,2,1.4,4.3,1.7,7l0,0l0,0c0,1.2-0.1,2.5-0.1,3.8c-0.2,4-0.4,8.6,0.1,12v0.2l-0.1,0.2
							c-0.4,0.7-0.6,1.6-0.7,2.6c-0.4,1.9-0.8,4-2.8,4.9h-0.2L284.4,386.5z"/>
					</g>
				</g>
				<g>
					<g>
						<g>
							<path d="M415.1,454.7c-0.8,0-2-0.3-2.8-1.7c-0.5-0.4-0.8-0.8-1.1-1.2c-0.5-0.6-0.6-0.6-0.8-0.7H410l-0.3-0.2
								c-1.5-0.8-2.6-2.1-3.7-3.2c-0.7-0.8-1.4-1.5-2.1-2l-0.8-0.6v-3l1.6-0.3c1-0.2,2-0.3,3.1-0.4c3.9-0.4,6.6-0.8,7.7-3
								c0-1.1,0.3-2,0.6-2.8c0.4-1.1,0.5-1.5,0.2-2L416,433l0.1-0.6c0.1-0.6,0.3-1.1,0.4-1.6c0.3-0.9,0.4-1.1,0.2-1.3l-0.6-1.2
								l0.4-0.4c0-0.5,0.2-0.9,0.2-1.3c0,0-0.1-0.1-0.1-0.2c-0.5-0.9-0.3-1.8-0.2-2.3l0,0v-0.6c0-0.8-0.2-1.9-0.9-2.2l-1-0.5v-1.1
								c-0.1-0.2-0.6-0.4-0.8-0.6l0,0c-0.2,0-0.4,0-0.7,0c-0.5,0-1-0.1-1.4-0.2c-0.3,0-0.5-0.1-0.7-0.1l0,0l-0.9,0.9l-1.2-0.6
								c-0.2-0.1-0.4-0.1-0.5-0.1c-0.4,0-1,0.4-1.6,0.7c-0.7,0.4-1.5,0.9-2.6,1.2c-0.8,0.7-1.8,1.2-2.6,1.6
								c-0.6,0.3-1.1,0.5-1.5,0.8c-1.5,1.2-3.1,1.9-4.7,1.9c-0.3,0-0.6,0-0.9-0.1h-0.3l-0.2-0.1c-0.1,0-0.3,0-0.5,0
								c-0.6,0-1.9,0-2.8-1c-1.4-0.5-2.8-1.5-3.5-2.5l-0.3-0.5v-3.4l2.5,0.8c0.2,0.1,0.4,0.1,0.6,0.1c0.6,0,1.3-0.4,2.1-0.8
								c1-0.6,2.3-1.2,3.9-1.2c0.2,0,0.4,0,0.5,0c0.7-0.4,1.4-0.5,2-0.7c0.7-0.2,1.3-0.3,1.6-0.6l0.2-0.2l0.3-0.1
								c0.6-0.3,1.1-0.4,1.7-0.6c0.4-0.1,1.1-0.3,1.3-0.5c-0.2-0.4-0.4-0.8-0.6-1.2c-0.5-0.9-1.2-2.1-1.4-3.6
								c-1.1-2.1-0.7-4.4-0.4-6.4c0.2-0.9,0.3-1.7,0.3-2.4v-0.1V400c0.1-0.6,0-1.4,0-2.2c0-2.1-0.1-4.5,1.2-6.6
								c0.2-0.4,0.4-0.7,0.6-0.9l-0.3-0.4l0.6-1.1c0.2-0.4,0.2-0.8,0.2-1.5c0-0.6,0-1.3,0.1-2.1c-0.4-1.1-1-2.8-0.7-4.6
								c-0.1,0-0.2-0.1-0.3-0.1c-1.3-0.1-2.5-0.6-3.4-1.5l-0.6-0.6v-0.8c0,0,0-0.2-0.1-0.2c-0.6-2.2,0.4-3.2,1.3-3.7l0.4-0.2h0.4
								c1.2,0,2.2-0.6,2.6-1.5l0.2-0.5l0,0c-0.3-0.6-0.6-1.8,0.1-2.9c-0.1-0.8-0.1-1.5-0.2-2.2c-0.2-1.8-0.3-3.7-0.5-5.8l0.4-0.1
								l-0.4-0.4v-0.8c0-0.4-0.1-0.9-0.3-1.4c-0.2-0.7-0.4-1.5-0.4-2.5v-2.1l2.1,0.2c3,0.3,5.2,3,6.1,5.3l0.2,0.4v0.4
								c0,0.2,0,0.2,0.4,0.7c0.1,0.1,0.2,0.3,0.3,0.4l0.3,0.4l0.2,1.7c0.2,2.2,0.4,4.2,0.4,6.2l0,0c0.9-0.4,2.1-0.9,3.4-0.9
								c0.2,0,0.4,0,0.7,0c0.5-0.4,1.1-0.6,1.7-0.8c0.2-0.1,0.5-0.2,0.6-0.2l0.3-0.1h0.3c1.4-0.2,2.5-0.8,3.8-1.4
								c1.2-0.6,2.6-1.3,4.3-1.7l0.5-0.1h0.1l0.1-0.1c0.2-0.6,0.2-1.3,0.2-2.1c0-0.9-0.1-1.9,0.2-3c-0.1-0.6-0.2-1.2-0.2-1.7
								c0-0.6-0.1-1.1-0.2-1.7c-0.3-0.7-0.4-1.3-0.5-1.9c-0.1-0.4-0.2-1.1-0.3-1.2l0,0l-0.9-0.4l-0.2-0.8c-0.2,0-0.6-0.1-0.9-0.1
								c-0.8,0-1.8-0.1-2.6-0.6l-1.5-0.9l0.8-1.6c0,0,0-0.1,0-0.2c0.3-0.9,0.8-1.5,1.4-1.8c1.4-2,3.9-2.6,5.7-3.1l0.6-0.2l0.4,0.1
								c5.5,1.3,9.7,4.4,11.5,8.3v0.1v0.1c0.6,1.6,1.3,4,0.8,6.1c0,0.8,0.1,1.5,0.2,2.2c0.2,0,0.5,0,0.8,0c1.5,0,3.3,0.1,4.7,1.6
								c0.1,0,0.2,0,0.2,0.1c0.7,0.2,2.2,0.5,2.6,2.3v0.2c0.2,1.2,0.7,3.4-1.6,4.8l-0.6,0.4l-0.6-0.1c-0.1,0-0.4,0.1-0.6,0.2
								c-0.5,0.2-1.1,0.5-1.9,0.5c-0.4,0-0.8-0.1-1.3-0.3c-0.6,0.2-1.1,0.3-1.6,0.4c-0.6,0.1-0.9,0.2-1.2,0.3
								c-0.1,1.4-0.4,2.6-0.7,3.7c-0.2,0.9-0.4,1.8-0.5,2.6c0.4,1.3,0.1,2.5-0.1,3.4c-0.2,0.7-0.3,1.3-0.2,1.7l0.3,1l-0.8,0.8l0,0
								c0,0.1,0,0.6,0,0.9s0.1,0.6,0.1,1c0.1,1.2-0.2,2.1-0.5,2.9c-0.3,0.7-0.4,1.1-0.3,1.6l0.3,1.3l-0.4,0.3
								c0.1,0.4,0.1,0.9-0.1,1.5c-0.1,1.7-0.5,3.8-0.9,5.6c0,0.8-0.1,1.5-0.2,2.2c-0.2,1.1-0.3,2.3-0.1,3.1v0.2v0.2
								c0,0.8-0.2,1.7-0.4,2.4c0,0,0,0,0.1,0c1.3,0,2.8-0.5,4.3-1.1c0.5-0.5,1.2-0.8,2.3-0.8c0.2,0,0.3,0,0.5,0l0,0l0.4-0.7h1.2
								c0.8,0,1.5-0.2,2.4-0.5c0.6-0.2,1.3-0.4,2.1-0.6c0.8-0.6,1.5-0.8,2.1-0.8c1.1,0,2,0.6,2.7,1c0.2,0.2,0.6,0.4,0.8,0.4l0.7,0.1
								l0.4,0.6c0.2,0.2,0.4,0.4,0.7,0.7c1.1,1.1,3.2,3.2,1.7,5.8l-0.3,0.5l-0.5,0.2c-1.5,0.8-3.1,1.1-5.2,1.1l0,0c-1,0-2-0.1-3-0.2
								c-0.9-0.1-1.7-0.2-2.5-0.2c-1.4,0-2.4,0.2-3.2,0.8l-0.5,0.3h-0.6c-0.4,0-0.8,0.2-1.3,0.4c-0.7,0.3-1.6,0.7-2.6,0.7
								c-0.2,0-0.4,0-0.6,0l-0.9,0.3c-3.4,1.1-6.7,2.1-10.2,2.8l-0.6,0.1l-0.6-0.3c-0.1,0-0.2-0.1-0.2-0.1c-0.3-0.2-0.8-0.4-1.3-0.9
								c-0.2,0.1-0.4,0.2-0.6,0.3c0,0,0,0,0.1,0.1l0.6,0.6v0.3c0.3,0.3,0.8,0.7,1.1,1.4c1.2,2.4,2.3,5.2,1.4,8.3
								c0.2,1.3-0.1,2.5-0.3,3.6c-0.1,0.5-0.2,0.9-0.2,1.2c0.3,1.4-0.1,2.6-0.4,3.7c-0.2,0.7-0.4,1.3-0.3,1.8l0.1,0.5l-0.2,0.5
								c-0.1,0.3,0,0.9,0,1.5c0.2,1.1,0.3,2.5-0.4,3.8c0,3.4-1.9,6.2-3.5,8.4c-0.2,0.2-0.3,0.4-0.5,0.7c-0.6,0.9-1.5,1.4-2.5,1.4
								c-0.3,0-0.6,0-0.8-0.1l-0.2,0.4l-1.2-0.2c-0.2,0-0.5,0.1-0.8,0.2C416.4,454.4,415.8,454.7,415.1,454.7z M411.4,412.1
								c0.1,0,0.2,0,0.4,0c0,0,0,0,0.1,0c0.9-0.3,1.9-0.4,2.7-0.4c0.8,0,1.7-0.1,2-0.4l0.3-0.2l0.4-0.1c0.4-0.1,0.8-0.2,1.1-0.2
								l0.2-0.6h1.5c0.8,0,1.7-0.2,2.7-0.4c0.6-0.1,1.2-0.2,1.8-0.3c0.1,0,0.2-0.2,0.3-0.3c0.3-0.3,0.8-0.8,1.5-1
								c1.1-1.2,1.6-2.3,1.5-3.3c-0.1-0.4,0-0.8,0-1.1l-0.8-0.3l1-1.9c0.4-0.7,0.3-1.5,0-2.8s-0.6-3,0-4.7c0-0.1,0-0.3,0.1-0.4
								l-0.1-0.1v-1c0-2.3,0.1-4.2,0.1-6.1c0-1.5,0.1-3,0.1-4.5l-0.2,0.5c0,0.1,0,0.2,0,0.3c0,1.6-0.6,2.3-1.3,2.7
								c-1.2,1.7-3.1,1.8-4.4,1.9c-0.4,0-0.7,0-1,0.1c-0.4,0.6-1.2,1.1-2.5,1.1c-0.3,0-0.6,0-0.8,0c-0.2,0-0.4,0-0.5,0h-0.1
								l-1.1,1.1l-0.8-0.6c-0.4,0.2-0.9,0.4-1.6,0.4c-0.4,0-0.8-0.1-1.2-0.2c-0.2,0-0.3,0-0.5,0s-0.5,0-0.6,0c0.1,0.3,0.1,0.6,0.1,1
								v0.3l-0.1,0.2c-0.4,1.3-0.6,2.5-0.6,4.4c0,0.1,0.1,0.2,0.2,0.4c0.7-0.3,1.4-0.8,2.2-1.3c1.5-1,3.1-2.1,5.4-2.1
								c0.2,0,0.3,0,0.4,0h0.4l0.4,0.2c0.1,0.1,0.6,0.1,0.9,0.2c0.7,0.1,2,0.2,2.8,1.1c0.7,0.2,1.5,0.7,2.1,1.9v0.1v0.1
								c0.6,1.5,0.2,2.8-1.2,3.9c0,0-0.1,0.1-0.2,0.1l-0.9,0.9l-0.3-0.2c-1.2,1.2-3.2,1.2-4.1,1.2c-0.2,0-0.4,0-0.6,0
								c-0.3,0.1-0.6,0.2-1,0.2l-0.2,0.2h-0.8c-0.3,0-0.8,0.1-1.3,0.1c-0.7,0.1-1.5,0.2-2.4,0.2c-0.5,0-0.9,0-1.3-0.1
								c0,0.2-0.1,0.4-0.1,0.6c0,0.3-0.1,0.7-0.2,1c0.2,1.3,0.1,2.6,0,3.7s-0.2,2.1,0,2.7l0.3,0.7l-0.2,0.7c0,0.2-0.1,0.2-0.1,0.3
								L411.4,412.1C411.3,412.1,411.4,412.1,411.4,412.1z M411.7,381.4c0,0.3,0.2,0.6,0.3,0.9c0.2,0,0.5-0.2,0.9-0.3
								c0.6-0.2,1.3-0.6,2.2-0.6c0.9-0.5,2-1.1,3.1-1.4c0.8-1.2,2.2-1.6,3-1.9c0.3-0.1,0.5-0.2,0.7-0.2l1.3-0.5l0.8,1
								c0.1,0,0.4,0.1,0.6,0.1c0.9,0.2,2.9,0.6,3.4,2.8l0.1,0.6c0-0.4,0-0.7,0-1v-0.3l0.1-0.3c0.6-1.8,0.7-4.4,0.4-7.4l-0.2-1.2
								c-0.4,0.1-0.8,0.2-1.1,0.4c-0.5,0.2-1,0.4-1.5,0.5c-0.2,0.1-0.4,0.1-0.7,0.1c-0.4,0.2-0.8,0.3-1.1,0.3c-0.2,0-0.5,0-0.7-0.1
								L423,373c-0.8,0.3-1.6,0.4-2.2,0.5c-0.5,0-0.8,0.1-1.2,0.2l-0.4,0.1H419c-0.1,0-0.3,0.2-0.5,0.3c-0.5,0.4-1.3,0.9-2.4,0.9
								c-0.5,0.2-0.9,0.4-1.4,0.6c-0.4,0.3-0.8,0.4-1.2,0.5c-0.4,0.3-0.7,0.5-1,0.7c-0.2,0.1-0.4,0.3-0.6,0.4c0.3,1.4,0,2.8-0.2,4
								C411.7,381.2,411.7,381.3,411.7,381.4z"/>
						</g>
						<g>
							<path d="M345.7,383.6c-1.6,0-3-0.6-4.2-1.6l0,0c-0.1-0.1-0.4-0.2-0.6-0.2c-0.9-0.3-3.4-1.1-3.1-4l0.1-1.2l1.2-0.4
								c3.2-1,6.1-1.5,9.1-2.1c0.6-0.1,1.3-0.2,1.9-0.4c2.4-1.3,4.9-1.9,7.3-2.4c1.2-0.3,2.5-0.6,3.7-0.9c2.5-1.3,5.1-1.7,7.4-1.9
								c2.6-0.4,4.9-0.6,6.6-2.1l0.4-0.3l0.5-0.1c0.4,0,0.7-0.2,1-0.4l0,0c-0.6-0.4-1.2-0.8-1.7-1.4l-0.2-0.2l-0.1-0.2
								c-0.2-0.4-0.6-0.9-1-1.3c-0.8-0.9-1.9-2.1-2-3.9c-0.4-0.9-0.7-1.8-1-2.6c-0.3-0.8-0.5-1.6-0.9-2.4c-1.1-1.3-2.4-3-2.7-5.1
								l-0.3-2.2h2.2c8.2,0,14.5,3.4,16.9,9c0.9,1.7,0.5,3.4,0.2,4.9c0,0.2-0.1,0.4-0.2,0.6l0.1-0.1c0.9-0.9,2.1-2.1,3.9-2.1
								c0.1,0,0.2,0,0.3,0c0.5-0.2,1-0.2,1.6-0.2c0.3,0,0.6,0,0.9,0c0.2,0,0.3,0,0.4,0h0.8l0.4,0.4l0.4-0.2l1,0.5
								c0.4,0.2,1,0.5,1.5,0.7c0.6,0.2,1.1,0.5,1.6,0.8l0.1,0.1l0.4-0.2l0.2,0.5l0.3,0.2v0.5l0.3,0.6c0.8,1.7,0.7,3.6-0.4,5.1
								l-0.2,0.2l-0.2,0.2c-0.7,0.5-1.4,0.8-2,0.9c-0.5,0.2-0.9,0.3-1.2,0.6l-0.6,0.6l-0.9-0.1c-0.3,0-0.6,0-0.9,0
								c-1.5,0-3.2,0.2-4.9,0.5c-1.1,0.2-2.3,0.4-3.5,0.4c-1.5,1-3.2,1-4.5,1.1c-0.9,0-1.8,0-2.5,0.3l-0.6,0.2l-0.6-0.1
								c-0.2,0-0.8,0.4-1.1,0.7c-0.8,0.6-1.7,1.2-2.8,1.2c0,0-0.1,0-0.2,0c-0.5,0.4-1.1,0.6-1.7,0.6c-0.4,0-0.6,0-0.9-0.1h-0.1
								l-0.1,0.1c-0.8,0.5-1.5,0.8-2.2,1.1c-0.8,0.3-1.4,0.6-1.7,0.9l-1.3,1.7l-0.9-0.9c-0.3,0.1-0.6,0.2-1,0.2l0,0l0,0
								c-2.1,0.6-4.4,1.3-5.9,2.6l-0.4,0.4l-0.5,0.1c-0.3,0-0.6,0.2-0.9,0.4c-0.6,0.3-1.3,0.7-2.4,0.7c-0.5,0.2-1,0.4-1.4,0.5
								c-0.2,0-0.6,0.2-0.7,0.2l-0.4,0.5l-0.6,0.2c-0.2,0-0.4,0.1-0.6,0.2C348.5,383.1,347.2,383.6,345.7,383.6z"/>
						</g>
						<g>
							<path d="M359,395.8c0-0.3,0-0.5,0.1-0.7c-0.8-0.1-2.6-0.5-3-2.6l-0.1-0.4l0.1-0.4c0-0.1,0-0.3,0-0.4
								c-0.1-0.6-0.2-1.3,0.1-2.1l0.3-0.8l0.8-0.3c0.4-0.2,0.9-0.2,1.3-0.2c0.6,0,1.1,0.2,1.5,0.3h0.1l0,0l0.3-0.1
								c0.9-0.3,1.8-0.6,2.8-1c1.3-0.5,2.6-1,4.1-1.4c1.8-1.1,3.6-1.9,5.3-2.6c0.9-0.4,1.8-0.8,2.5-1.1c0.9-0.6,1.7-1.3,2.5-2.2
								c1.2-2.1,3.6-3.1,7-3.1c1.6,0,3.1,0.2,4.5,0.5l0.8,0.1l1.1,1.6l0.1,0.2c0.4,1.1,0,1.8-0.3,2.3c0,0.2,0,0.4-0.1,0.6l0,0
								c-0.4,2-2.2,2.2-2.8,2.3c-0.1,0-0.1,0-0.2,0l-1.1,1.9l-0.8-0.8c-0.8,0.4-1.6,0.4-2.1,0.4h-0.1l-0.3,0.7l-1,0.2
								c-2.3,0.5-4.3,1.3-6.6,2.1c-0.7,0.3-1.5,0.6-2.3,0.8c-0.2,0.3-0.8,0.8-1.6,0.9c-0.6,0.5-1.3,0.7-1.6,0.8
								c-0.2,0.1-0.5,0.2-0.6,0.2c-2.7,2.7-5.2,4.6-7.9,6.1L359,399V395.8L359,395.8z"/>
						</g>
						<g>
							<path d="M356.1,413c0-0.7,0.2-1.2,0.4-1.7c0-0.2,0.1-0.4,0.2-0.5V410c-0.1-0.2-0.2-0.3-0.3-0.5c-0.1,0-0.1,0-0.2-0.1
								c-0.7-0.2-2.6-0.9-2.6-3.2v-0.4l0.1-0.2c0-0.1-0.2-0.3-0.2-0.5c-0.3-0.5-0.6-1.1-0.6-1.8v-0.9l4.8-3.6l0.8,2.5
								c0,0,0.2,0,0.3,0c0.3,0,0.6,0,1-0.1c0.4,0,0.9-0.1,1.4-0.1c0.2,0,0.3,0,0.4,0c0.2-0.1,0.4-0.3,0.6-0.5c0.6-0.4,1.3-1,2.4-1.2
								c1-0.8,2.2-1.3,3.2-1.7c1.1-0.4,2-0.8,2.6-1.5l0.4-0.5l0.6-0.2c0.2,0,0.4-0.2,0.7-0.3c0.5-0.3,1.1-0.6,1.9-0.7
								c0.8-0.7,1.6-1.1,2.3-1.5c0.6-0.3,1.1-0.6,1.6-0.9l0.4-0.3l0.4-0.1c0.1-0.1,0.3-0.2,0.4-0.4c0.4-0.4,0.9-0.9,1.7-1.1
								c0.2-0.3,0.4-0.6,0.6-0.7l0,0l0.7-1.4l1.6,0.6c0.5,0.2,1.1,0.3,1.8,0.4c1.1,0.2,2.5,0.4,3.6,1.3c1.3,0.3,2.4,1.1,2.8,2.4
								l0.1,0.3v0.3c0,3.4-3,4.7-4,5.1l-0.6,0.3l-0.6-0.2l0,0c-0.3,0-0.8,0.2-1.3,0.5c-0.8,0.4-1.7,0.8-2.8,0.8
								c-1.4,0.9-3,1.4-4.5,1.9c-1,0.3-1.9,0.6-2.8,1l-1,0.5l-0.3-0.2c-0.3,0.4-0.8,0.8-1.3,1c-0.3,0.1-0.6,0.2-0.9,0.2
								c-0.2,0-0.3,0-0.5,0c-0.9,0.9-2,1.5-3.1,2.2c-1.3,0.8-2.5,1.5-3.3,2.6l-0.5,0.7l-0.8,0.1h-0.1c-0.1,0-0.3,0.4-0.4,0.6
								c-0.4,0.6-1,1.6-2.2,2.2c-0.1,0.1-0.1,0.2-0.2,0.3c-0.4,0.6-0.9,1.2-1.6,1.7l-2.9,2V413H356.1z"/>
						</g>
						<g>
							<path d="M361.4,450.8c-0.5,0-1-0.1-1.5-0.4l-0.2-0.1l-0.1-0.1c-0.1-0.1-0.4-0.2-0.6-0.3c-0.7-0.3-1.9-0.8-2.5-2.1
								c-2.3-1.6-2.8-3.3-2.7-4.6c-1.1-3.2-2-6.2-2.3-9.6c-0.8-0.8-0.9-1.8-1-2.4c0-0.1,0-0.2,0-0.3l-0.5-0.5v-0.8
								c0-1.8,0-3.9,0.6-5.3v-0.1l0.1-0.1c0.2-0.4,0.3-0.9,0.4-1.7c0.1-0.9,0.2-1.9,0.7-3c-0.2-1.6,0.9-3,1.6-3.8
								c0.1-0.1,0.2-0.3,0.3-0.4l0.4-0.5c0.3-0.8,1-1.7,2.4-1.7h1.9v1.9c0,0.6-0.2,1.1-0.3,1.7l0,0c2.3-0.6,4.5-1.7,7-3.3l0.5-0.3
								h0.6c0.2,0,0.6-0.3,0.9-0.4c0.5-0.3,1.1-0.7,1.9-0.9c2.4-1,4.4-2.6,6.5-4.3c1.5-1.2,3.2-2.5,4.9-3.5l0.8-0.5l0.9,0.4
								c0.8,0.3,1.6,0.4,2.5,0.6c1.9,0.3,4.3,0.7,5.7,3.2c0.8,0.4,1.3,1.1,1.6,2.3v0.1l0.3,0.3v0.7c0.2,2.3-0.8,4.1-1.8,5.7
								c-0.4,0.6-0.7,1.2-0.9,1.8h0.8v6.2l-2.9-2.2c-0.1,0-0.4,0.1-0.5,0.2c-0.1,0-0.2,0.1-0.4,0.1c-1.1,1.3-1.7,3.1-2.3,4.8
								l-0.4,1.1l-0.7,0.4c-0.2,0.1-0.3,0.3-0.4,0.5c0.6,2-0.8,3.4-1.4,4.1c-0.2,0.2-0.4,0.4-0.5,0.5l-0.1,0.2l-0.2,0.1
								c-1.3,1.1-2.9,1.5-4.3,1.7c-1.1,0.2-2.1,0.4-2.6,1l-0.9,1.1l-1.2-0.6c-0.1,0-0.2,0.1-0.3,0.1c-0.2,0-0.3,0.1-0.5,0.2
								c-1,1.2-2.4,1.5-3.4,1.8c-0.8,0.2-1.2,0.3-1.4,0.5c0.3,1.1,0.4,2.3,0.4,3.4c0,0.6,0,1.1,0.1,1.5l0.1,0.6l-0.3,0.6
								c-0.2,0.4-0.4,0.8-0.5,1.3c-0.2,0.5-0.4,1.1-0.7,1.6l-0.2,0.4l-0.6,0.4C363.6,450.1,362.6,450.8,361.4,450.8z M360.6,426.1
								c0.1,0.6,0.2,1.1,0.2,1.6c0.1,0.8,0.2,1.3,0.4,1.4l0.5,0.4l0.2,0.6v0.1c0.3,0,0.7-0.1,1.1-0.2c0.6-0.1,1.3-0.3,2.1-0.3
								c0,0,0,0,0.1,0c0.6-0.5,1.5-0.9,2.6-0.9c0.1,0,0.3,0,0.4,0c1-0.3,2.1-0.8,3.2-1.2c0.6-0.2,1.1-0.5,1.7-0.7
								c0.3-0.2,0.5-0.6,0.8-0.9c0.2-0.4,0.6-0.8,0.9-1.1c-0.4-1.1-0.4-2.2-0.3-3.1c0-0.6,0.1-1.1,0-1.6l-0.1-0.9l0.4-0.4
								c0-0.1,0-0.3,0-0.4c-0.3,0.3-0.7,0.5-1.1,0.6c-0.2,0.1-0.4,0.3-0.6,0.4l0,0l-0.2,0.2c-1.5,1.5-3.4,3.4-6.3,3.7
								c-1.4,0.9-2.8,1-3.8,1c-0.5,0-0.9,0-1.4,0c-0.4,0-0.8,0-1.2,0c-0.1,0-0.2,0-0.3,0C360.4,424.5,360.6,425.2,360.6,426.1z"/>
						</g>
						<g>
							<path d="M450.5,443.2c0,0-0.1,0-0.2,0c-1.1,0-2.1-0.3-3-0.8l-0.3-0.2l-0.2-0.3c-0.3-0.3-0.6-0.7-1-1
								c-0.8-0.8-1.7-1.6-2.3-2.7c-0.8-0.8-1.4-1.7-2.1-2.6c-0.9-1.3-1.8-2.6-3-3.4l-0.3-0.2l-0.2-0.3c-0.3-0.4-0.7-0.8-1.1-1.3
								c-0.9-0.9-1.9-1.9-2.3-3.4l-0.2-0.7l0.3-0.7c0.5-1,1.5-1.7,2.6-1.7c0.3,0,0.7,0,1.1,0.2c0.1,0,0.2,0,0.3,0
								c0.5,0,1,0.2,1.4,0.5c0.2,0,0.4-0.1,0.6-0.1c0.5,0,0.9,0.2,1.4,0.4c1.2,0.1,2.2,0.4,3,0.8c0.2,0,0.5,0.1,0.6,0.1h0.9l0.5,0.9
								c0.2,0.1,0.8,0.2,1.2,0.3c0.6,0.1,1.2,0.2,1.8,0.4l0.3,0.1l0.2,0.2c0.3,0.2,0.7,0.4,1.1,0.6c0.9,0.4,2,1,2.6,2.2
								c0.9,0.8,1.2,1.9,1.3,2.5c0,0.2,0.1,0.4,0.1,0.5l0.3,0.2l0.2,0.5c1,2.8-0.1,5.9-1.5,7.7l-0.2,0.3l-4.1,2L450.5,443.2
								L450.5,443.2z"/>
						</g>
						<g>
							<path d="M395.8,449.8C395.7,449.8,395.7,449.8,395.8,449.8c-0.6,0-1.8-0.2-2.4-1.4l-0.2-0.4v-0.4c0-0.3,0-0.7,0-1
								c0-0.5,0.1-1.3-0.1-1.4l-1-0.8l0.4-1.3c0.6-1.8,1.3-3.8,2.3-5.9c0.1-1,0.5-1.9,0.9-2.5c0.4-0.8,0.4-0.8,0.3-1.1l-0.8-1.7
								l1-0.5c0-0.5,0-1.2,0.4-1.9l1.1-1.6l1.6,1.1c0.4,0.2,0.7,0.6,1,0.9c0.1,0.1,0.1,0.1,0.2,0.2c0.4-0.3,0.7-0.5,0.9-0.7
								c0.1-0.1,0.3-0.2,0.3-0.2l3.2-3.2v4.6c0,1.7,0,3.6-0.5,5.5c-0.2,1.9-0.7,4.4-1.1,6.2c0.3,2.4-1,4.1-2.1,5.5
								c-0.2,0.3-0.5,0.6-0.7,0.9l-0.1,0.1l-0.1,0.1c-0.6,0.6-1.3,0.9-2.2,0.9c-0.2,0-0.4,0-0.5,0s-0.2,0-0.2,0l-0.8,0.4
								L395.8,449.8z"/>
						</g>
					</g>
				</g>
				<g>
					<path d="M189.6,210.5c2.6-1.3,2.6-4.8,5.7-6.1c0.9-4.4,2.2-9.1-1.3-12.6c-5.7-3-12.6-0.9-19.5-0.9c-5.2,3-9.6,7.4-13.9,10.9
						c-1.7-0.4-2.2,1.3-3.5,2.2c-6.1,1.7-10,10-16.9,10c-0.9,1.3-1.7,1.3-3,0.9c-1.7,1.3-4.4,1.3-6.1,3.5c-4.8,0.4-9.1,4.4-13.9,2.2
						c-1.3-1.7,1.3-1.7,1.7-3c7-4.4,15.6-8.3,21.3-15.2c7-2.6,11.7-10,18.7-13.4c3.5-4.4,9.6-5.7,12.2-10c3.9-2.6,6.5-5.7,10.9-7.4
						c0.4-2.2,3-2.6,4.4-3.9c3.9-2.6,3.5-7,3.5-11.3c-3.9-1.7-6.5-4.4-11.3-5.2c-3.5,1.3-6.5-2.2-9.1-4.4c-1.7,0-3.9-0.9-4.8,0.9
						c-6.5,1.3-9.1,9.6-15.2,11.7c-5.7,3.5-11.7,7-17.8,9.6c-5.7,4.8-13.9,5.2-19.5,10.4c-4.8,0.9-10,4.4-15.2,1.7
						c-1.3-1.3-1.7-3-2.2-4.8c5.2-10.4,16.1-14.8,23-23.9c3.5-1.7,6.5-3.9,9.6-6.1c3.5-3,6.5-5.2,10.4-8.3c1.7-0.9,2.2-2.2,4.4-2.6
						c8.3-7.8,17.4-13.4,26.5-20c1.3-2.2,1.3-5.7,0.4-8.3c-2.2-3.5-6.1-7-10-7c-1.7-1.7-3,0.9-5.2-0.4l-2.2-0.4
						c-2.2,1.7-4.4-1.7-6.5,0.9c-3.5-0.4-7,0.9-10,2.2c0,4.4-1.7,8.3-3.5,12.1c-1.7,3-5.7,5.7-5.7,9.6c-5.2,8.3-10.4,16.1-16.9,23
						c-2.6,5.2-7.8,8.7-10.4,13.9c-2.6,0-5.2,3-6.1,5.2c-7.8,8.3,2.6,16.5,0.4,26.1c0,0.9,1.7,1.7,0,2.6c1.3,2.2-0.4,5.2,1.7,7
						c4.8,6.1,10.9-0.4,16.1-1.3c7-1.7,7.8-10,12.6-14.3c3-3,6.1-7,10-9.1c3.9-3.9,9.1-5.2,12.2-10.4l7.8-4.8
						c0.4,0.9,1.3,1.7,1.7,2.6c-1.3,1.3-1.3,3-3,3.5c-2.2,3.9-6.1,6.5-8.3,10c-4.8,1.7-2.6,7.8-7.4,9.1c0.4,3-3,2.6-3.5,5.2
						c0,2.2-1.7,3.9-2.2,5.7c-0.4,1.3-1.3,0-1.3,0c-3.5,2.2-6.1,7.8-10,8.3c-1.7,1.3-2.2,3.5-2.2,5.7c-2.2,1.3-4.4,2.6-5.2,5.2
						c-1.3,0.9-1.7-0.9-3-1.3l-0.9,1.3c-2.6-0.4-3,3-5.2,3c-0.4,0-0.4-0.4-0.4-0.9c-3,0.4-3,3.5-5.2,5.2c-0.4,2.6-3,5.2-0.9,7.4
						c2.6,3.9,7,3.5,10.4,4.4c3.5-2.6,7.8-0.4,11.3-2.6c4.4-3,8.7-4.8,12.6-8.7c1.7-0.4,3-0.4,4.4-1.3c2.6,0,5.7-0.9,7,2.6
						c-0.4,4.4,1.7,9.1,0.4,13.9c0,3,1.7,6.1,0,8.7c0.9,2.2-0.4,4.4,0,7c0,0.4-0.9,0.9-0.9,1.7c-2.6,2.2,2.6,3,1.7,5.7
						c-1.3,3.5,0,7,0,11.3c-0.4,1.7-2.2,0.4-3,0.4c-1.7,0.9-2.6-1.7-3.9,0c-4.4,0.9-7-5.2-11.3-3c-1.7,0.4-2.2-2.2-3.5-1.7
						c-0.4,2.2,3,4.4,3,6.5c2.6-0.4,0.9,3,3.5,2.6c1.7,2.6,5.2,3.5,7.8,4.4c0.4,2.6,2.2,0,3.5,1.3c0.9,1.7-0.9,3-0.9,4.8
						c0.9,0.9,2.2,1.3,1.7,2.6c1.3,0.4,2.2,0,3-0.4c2.6,2.2,4.8-1.3,6.1-3c3-1.3,1.7-5.2,3.9-7.4c1.7-7,1.3-14.3,2.6-20.8
						c-1.3-2.6,0.9-4.8-0.4-7c0.4-6.1,2.6-14.3-0.4-19.5v0.4c-3,1.3-3-2.6-4.8-3.5c-2.2-4.8,3.9-2.6,5.2-4.8l-0.9-0.4
						c1.3-3.5-1.3-7-3.5-9.1c-1.3,0.4-2.6-0.9-3.5-2.2c3.9-1.3,6.5-3.9,9.6-7c4.4-2.2,8.3-5.7,12.6-7c2.2-1.3,5.7,0,7.4-0.4l0.4,0.4
						c0,0.9-0.9,0.9-1.3,1.3l2.2,2.2c1.3,2.6-2.2,1.7-2.2,4.4c-3.5,1.7-5.7,5.7-9.6,6.5c-2.6,3-6.1,4.4-7.8,7.4v0.4
						c4.8-2.6,10.9,0.4,15.6-2.6c1.3-0.9,2.2-2.6,3.9-2.2C181.7,214.8,187,214.8,189.6,210.5z"/>
					<path d="M67,120c-1.3,0-1.3-1.7-2.6-1.3c-1.3,0.4-3,1.3-4.8,0.9c-6.1,1.3-10.9,5.7-17.4,6.1c-8.7,3.5-16.9,6.1-26.1,7
						c-1.7,1.3-4.4,0.4-5.7,1.7c-0.4,0.4,0.4,0.9,0.9,1.3c1.7,0.4,3.5,1.3,4.8,3c3,2.6,6.5,5.7,9.6,7.4c3.5-0.4,4.8,3,7.8,1.3
						c1.7,1.7,3-0.9,4.8-0.4c2.2-1.3,5.2-0.9,7.8-2.2c1.3,0.9,3.5-0.9,5.2,0c-0.4,4.8-3,8.7-6.1,12.6c-0.9,3.9-3.9,6.5-5.2,10
						c0.9,4.4-3.9,6.5-4.8,10c-1.3,4.8-7,7.4-6.5,12.1c1.3,0.9,0.9,2.6,0.4,3.9c1.7,1.7,1.3,4.8,4.4,6.1c3.5,0.9,7.8-0.4,10,3
						c1.7,1.7,1.3,3.9,3,5.2c1.3,2.6-0.4,6.1-2.2,8.3c-2.2,1.3-3.5,4.4-4.8,7c-5.2,4.8-8.3,10.9-12.2,16.5l-2.2,1.3
						c-4.4,5.7-10.4,11.3-14.8,17.4c0,3-2.6,5.7-2.2,8.7c-1.3,2.2,1.7,3.9,2.2,5.7c3.9,2.2,4.4,6.5,5.7,10c2.6,3.5,6.1,5.7,10.4,6.1
						c3.5,1.7,7.8,2.6,11.3,0.9c4.8,0.9,10-1.3,14.8-3c4.8-2.2,6.5-6.5,10-10c1.3-3.5-0.4-8.3,1.3-10.9c0.9-11.3,1.3-22.1,1.3-34.3
						l-0.9-0.9c-0.9-4.8,0.4-10.4-2.2-14.8c-1.7-5.7,2.2-10,3.9-15.2c2.2-3,3.5-6.5,5.2-10c-1.3-3,3-3.9,2.2-7.4
						c-2.2,1.3-2.6,4.4-5.7,5.7c-1.3,3-3.9,6.1-6.5,8.3c-2.2,0.9-3.9-0.4-5.7-1.7c-1.3-4.8-7-6.1-7.4-10.9c0-1.7,1.7-1.7,2.6-2.6
						c3-4.8,6.5-8.7,9.6-13.4c3-4.8,6.1-10.4,10.4-14.8c-0.9-3,3.5-4.8,3-7.8c2.6-3,4.4-7.8,4.4-11.7C77.4,127.3,72.7,122.2,67,120z
						 M51.8,229.4c0,8.7,1.3,16.5-0.4,24.8c0.9,3.9-2.2,7-3,10.4c-2.2,1.7-4.8,3-7,5.7c-0.9-0.9-2.6-0.4-3.9-0.9
						c-2.6-3.9-3.9-7-2.6-12.1c3-7,7-14.3,10.9-21.3C49.2,235.1,48.3,230.3,51.8,229.4z"/>
					<path d="M215.2,253.5c-2.6,0.4-3-3-5.7-3c-3.5,0.9-4.8-3-7.8-3.5c-0.9-2.6-3.5-1.3-5.2-1.7c0,0.9-0.4,1.7-1.3,1.7
						c-1.7,4.4-1.7,9.6-6.5,11.7c-1.7,3-6.1,3.9-8.3,6.5c3.9,1.3,8.3,0,11.7,2.6c5.2-0.4,8.7,3.9,13.9,2.2c4.4-0.9,7.8-4.4,9.6-7.8
						C216.1,258.7,218.2,256.1,215.2,253.5z"/>
					<path d="M107.9,252.2c-1.3-0.9-3.5-0.4-5.2-0.4c-2.6-2.2-4.4-4.8-7.4-6.1c-1.7,1.7-1.3,4.8-0.9,7.4c-1.3,2.2-1.3,3.9-2.2,6.1
						c-3,0.9-1.7,4.8-3.9,6.1c-0.4,3.9-2.6,6.5-0.9,10.4c0.9,4.8,5.7,5.7,9.1,7c3-0.4,7,1.3,9.6,0.4c1.3-1.3,3.9-2.6,3.5-4.4
						c1.3-2.6-0.9-5.2,0.9-7.8c-0.9-4.8,2.2-9.1,0-13.4c1.3-2.2,2.6-3.9,3-6.1C111.8,250,109.6,252.2,107.9,252.2z"/>
				</g>
				<g>
					<path d="M259,252.8c-0.5,0-0.9-0.1-1.3-0.3c-0.4,0.1-0.7,0.1-1.1,0.1c-0.7,0-1.4-0.2-1.9-0.3s-0.9-0.2-1.3-0.2
						c-0.2,0-0.4,0-0.6,0.1l-0.5,0.3l-0.5-0.3c-1.3-0.7-2.7-0.7-4.2-0.7H247l-0.3-0.4c-0.2-0.2-0.8-0.2-1.2-0.2
						c-0.6,0-1.1-0.1-1.7-0.4l-1.4-0.7l1.1-1.1c0.6-0.6,1.5-0.7,2.3-0.8c1-0.1,1.6-0.2,2-0.7l0.4-0.5h0.6c1.9,0,3.6-0.9,5.4-1.9
						c0.8-0.4,1.6-0.9,2.5-1.3l0.2-0.1h0.2c4.2-0.6,7-3.6,9.8-6.7c0.6-0.6,1.2-1.3,1.8-1.9c1.9-1.9,2.4-4.8,2.8-7.8
						c0.2-1.4,0.4-2.8,0.8-4.2v-0.1v-0.1c0.2-0.5,0.3-1.4,0.3-2.2c0-1.2,0.1-2.6,0.8-3.7c0.1-1.1,0-2.3-0.1-3.6
						c-0.2-2.1-0.3-4.4,0.4-6.4c-0.3-0.9,0-1.7,0.2-2.3c0.2-0.8,0.3-0.9-0.2-1.3l-0.1-0.1l-0.1-0.1c-0.8-1.1-0.2-2.2,0.2-2.8
						c0,0,0-0.1,0.1-0.1l-0.2-0.1l-0.2-0.4c-0.5-1.3-1.6-1.6-3.7-1.6c-0.2,0-0.9,0-1.1,0c-0.6,0-1.2,0-1.8-0.1h-0.1h-0.1
						c-0.3-0.1-0.5-0.1-0.8-0.1c-0.6,0-1.1,0.2-1.7,0.4c-0.7,0.2-1.3,0.4-2.1,0.4c-0.2,0-0.5,0-0.8-0.1c-1.5,1.1-2.9,1.6-4.3,2.1
						c-0.5,0.2-0.9,0.4-1.4,0.6l-0.2,0.1h-0.2c-1.3,0-2.5,0.6-3.9,1.1c-1.1,0.5-2.3,1-3.7,1.2c-3.4,1.7-7.4,2.6-11.2,2.6
						c-1.8,0-3.6-0.2-5.2-0.6H231c-0.2,0-0.3,0-0.4,0h-0.2h-0.2c-0.9-0.3-1.9-0.3-3-0.4c-1.9-0.1-4-0.3-5.8-1.5
						c-1.1,0-2.2-0.1-2.8-1.1l0,0c-0.2,0-0.4,0.1-0.6,0.1c-0.4,0-0.7-0.1-1-0.2l-0.6-0.3v-2.6h1.1c1.1,0,2.2-0.4,3.3-0.9
						s2.3-1,3.7-1.1c0.8-0.8,1.7-0.9,2.6-0.9c0.1,0,0.3,0,0.4,0s0.2,0,0.4,0c0.4,0,0.8,0,1-0.2l0.4-0.2l0.4,0.2
						c0.2,0,0.3,0.1,0.5,0.1c0.6,0,1.1-0.3,1.8-0.6c0.8-0.4,1.7-0.9,2.8-0.9c0.2,0,0.4,0,0.7,0c0.8-0.4,1.6-0.7,2.4-0.9
						c1-0.2,1.9-0.5,2.5-1.1l0.6-0.6l0.7,0.3c0.1,0,0.3,0.1,0.4,0.1c0.4,0,0.8-0.2,1.3-0.6c0.7-0.4,1.5-0.9,2.6-0.9
						c0.2,0,0.4,0,0.7,0.1h0.1h0.1c0.2,0.1,0.5,0.2,0.7,0.2c0.7,0,1.4-0.4,2.2-0.8c0.9-0.6,2.1-1.1,3.4-1.1c0.2,0,0.4,0,0.6,0
						c0.6-0.3,1.2-0.4,1.8-0.5c1-0.2,2-0.4,2.7-1.1l0.2-0.2l0.3-0.1c0.3-0.1,0.6-0.1,1-0.1c0.5,0,0.9,0.1,1.3,0.1s0.7,0.1,1,0.1
						c0.4,0,0.7-0.1,1-0.3l0.1-0.1h0.1c1.3-0.7,2.7-0.9,4.1-1.1c1.2-0.2,2.4-0.4,3.4-0.9c1.4-0.9,1.2-3,0.8-4.4
						c-0.6-0.6-0.9-1.3-1.3-1.9c-0.2-0.5-0.6-1.2-0.9-1.2c-0.1,0-0.2,0-0.6,0.2c-1.8,1.5-4.1,2.3-6.3,3.2c-0.9,0.3-1.8,0.6-2.6,1
						l-1.3,0.6l-0.3-1.4c-0.4-1.9,0.8-3.2,1.8-4.2c0.4-0.4,0.8-0.9,1-1.3c0.2-0.8,0.8-1.4,1.2-1.9c0.8-0.9,1.1-1.3,0.8-2.2
						c-0.1-0.1-0.4-0.2-0.7-0.3c-0.7-0.2-1.7-0.6-2.1-1.7l-0.3-0.9l0.9-0.4c1.7-0.9,3.3-1.2,4.8-1.5c1.4-0.3,2.7-0.6,4.1-1.2
						c0.6-0.6,1.1-1.3,1.7-1.9c1.7-1.9,3.4-3.7,4.2-5.9c0-1.4,0.4-2.7,0.8-4c0.6-2,1-3.3,0.4-4.4c-0.4,0.2-0.9,0.2-1.5,0.2
						c-0.5,0-0.9-0.1-1.4-0.1c-0.4,0-0.7-0.1-1-0.1c-0.4,0-0.7,0.1-0.9,0.4l-0.2,0.3l-0.4,0.1c-2.9,0.8-5.3,2.3-7.7,4
						c-1.3,0.9-2.5,1.7-4,2.5c-0.5,1-0.8,2.1-1,3.2c-0.4,1.9-0.9,3.8-2.3,5.3c-0.5,2.7-1.5,4.7-3,6.3l-0.4,0.4l-0.6-0.1
						c-0.1,0-0.2,0-0.3,0c-0.6,0-1.3,0.3-1.9,0.6c-0.8,0.4-1.6,0.8-2.5,0.8c-0.7,0-1.4-0.2-2-0.7c-2.9-1.5-4.7-3.8-5.2-6.6
						c-1.9-3.2-1.1-7-0.4-10.7c0.4-1.8,0.7-3.6,0.8-5.3c-0.3-1.3-0.9-4.5,0-7.4l0.2-0.6l0.7-0.1c0.2,0,0.4,0,0.6,0
						c1.6,0,2.4,1.3,2.8,2.1c0.5,0.9,0.7,1.1,1.1,1.1h0.5l0.3,0.4c0.9,0.9,1.5,2.2,2.1,3.5c0.9,1.9,1.5,3.2,2.5,3.2
						c0.3,0,0.7-0.1,1.2-0.4c1.7-0.9,3.4-1.9,5.1-2.8c4.7-2.5,9.1-4.9,13.4-8.4l0.2-0.2h0.3c3.1-0.4,6-0.8,8.1-2.6l0.5-0.4l0.6,0.2
						l0,0c0,0,0,0,0.1,0c0.2,0,0.6,0,0.9-0.1c0.4-0.1,0.8-0.1,1.3-0.1c1.3,0,2.1,0.7,2.4,1.8c0.8,0.4,1.5,0.8,2.2,1.1
						c3.4,1.8,6.5,3.4,9.5,6.4l0.1,0.1l0.1,0.1c1.7,2.8,1.1,7.2,0.9,8.4v0.2l-0.1,0.1c-1.9,4.2-5.7,6.2-9.4,8.1
						c-1.2,0.6-2.4,1.3-3.5,1.9c-0.9,1.3-2.4,2.2-3.9,3c-2.8,1.7-3.9,2.5-3.1,4.3c0.8,0.8,1.3,1.7,1.8,2.5c0.7,1.3,1.2,2,2.3,2.4
						l0.4,0.1l0.2,0.4c0.3,0.4,0.5,0.9,0.7,1.3c0.5,1,0.8,1.7,1.4,1.8h0.1h0.1c0.6,0.3,1.2,0.4,1.9,0.4c1.3,0,2.6-0.5,3.9-1.1
						c1.5-0.6,2.9-1.2,4.5-1.2c0.3,0,0.6,0,0.9,0.1c1.1-0.3,2.3-0.7,3.3-1c3-0.9,5.9-1.8,9-2.2c0.8-0.5,1.6-0.8,2.5-0.8
						c2.2,0,4.3,1.5,5.9,2.7c0.3,0.2,0.6,0.4,0.8,0.6c3.8,2,6.5,5.7,6.9,9.7v0.4l-0.2,0.3c-0.2,0.3-0.4,0.6-0.5,0.9
						c-0.5,1-1.2,2.3-2.6,3l0,0l0,0c-0.6,0.2-1.3,0.4-2,0.4l0,0c-0.7,0-1.3-0.1-1.9-0.2c-0.5-0.1-0.9-0.2-1.3-0.2
						c-0.2,0-0.3,0-0.5,0l-0.5,0.1l-0.4-0.2c-1.1-0.7-2.4-1-3.9-1c-1.4,0-2.9,0.3-4.5,0.6c-1.7,0.3-3.4,0.6-5.1,0.6
						c-0.4,0-0.7,0-1,0h-0.6l-0.2-0.4c-1,0.8-2.5,1.2-4.2,1.2h-0.5l-0.3-0.4c-0.1-0.1-0.2-0.2-0.3-0.2c-0.1,0-0.4,0.1-0.6,0.2
						c-0.4,0.2-0.9,0.4-1.5,0.4c-0.3,0-0.6,0-0.9-0.2c-0.9,0.7-1.9,0.7-2.3,0.7s-0.7,0-1,0s-0.6,0-0.9,0c-0.2,0-0.4,0-0.5,0
						c-0.4,1.9-0.4,3.8-0.4,5.9c0,2.2,0,4.5-0.5,6.7c0.3,0.8,0.2,1.5,0.1,2.3c-0.1,1-0.2,1.5,0.2,1.8l0.4,0.4v0.6
						c0,0.9-0.2,1.8-0.4,2.6c-0.4,1.7-0.6,2.8,0.2,4l0.3,0.5l-0.2,0.6c-0.7,1.8-0.7,3.8-0.7,5.8c0,2.2,0,4.4-0.9,6.6
						c-1.8,4.9-5.4,9.7-8.1,12.8l-0.4,0.4h-0.5c-0.5,0-0.9,0.5-1.6,1.3c-0.8,1-1.8,2.3-3.6,2.3h-0.1c-1.2,0.7-2.3,1-3.3,1.3
						c-0.7,0.2-1.3,0.4-2.1,0.6l-0.6,0.2l-0.5-0.4c-0.4-0.3-0.8-0.4-1-0.4c-0.5,0-1.1,0.3-1.7,0.6
						C260.7,252.4,259.9,252.8,259,252.8z"/>
				</g>
				<g>
					<path d="M470.6,226.9c-2.3-1-3.2-3.9-5.8-4.5c-2.6-0.6-5.2-1.9-8.1-2.3c-1.9-2.3-4.9-3.2-8.1-2.6c-1.9,1.3-4.5,1.3-6.2,3.2
						c-8.1,1.9-15.5,4.2-23.6,5.2l-1.6,1c-3.6-0.3-6.8,4.2-10.4,1.6c-0.6-1,0.3-1.6,0.3-2.6c3.2-3.6,5.5-8.1,8.4-12
						c1.3-2.9,4.5-5.2,4.5-8.4c1-1.9-0.6-4.2,1-5.8c0.6-0.6,1,0.6,1.9,0.3c0-1-1.3-1.3-1-2.3c1.6-2.6,4.5-1.9,6.8-2.6
						c2.6,1.3,4.2-1,6.1-1.6c1-2.3,2.3-4.2,3.2-6.5c1.6-1.9,3.2-4.9,1.9-7.4c-2.3-3.2-5.8-4.2-9.7-5.2c-1.3,0.3-3.6-0.3-4.5,1
						c-0.6,0.3-1,0-1.3-0.3l-6.2,2.9c-5.2,2.3-11,2.9-15.9,6.2c-4.9,1-9.1,3.9-13.9,4.9c-5.2,3.2-10.7,7.1-16.2,9.7
						c-1.9-2.6-4.5-4.5-6.5-7.4c0-1.3,1-1.6,1.3-2.6c1.3-1.9,3.9-2.3,4.5-4.5c3.6-1.6,7.1-3.2,10-6.2c3.9-1.9,7.8-4.2,11.7-6.5
						c1.3-1.3,3.2-1.6,4.2-2.9c4.9-2.3,10-3.6,13.9-7.8c1-1,1.6-2.6,3.2-2.3c1.3-0.3,2.3-1.6,2.6-2.9c-1-2.9-1.6-6.2-4.5-8.1
						c-7.8-4.9-13.9-13.6-23.3-15.2c-2.3,0.3-4.5,0-5.8,2.6c1.6,0.6,2.6,2.9,2.6,4.9c1.3,4.9-2.6,8.4-4.2,12.9
						c-9.1,10-16.5,22-26.5,31.1c-2.3,0.3-4.5-0.6-6.5,0.3c0.3,0.6-0.3,2.3-0.3,3.2c0,1.3,1,1.9,1.6,2.3c1.3,3.6,2.3,6.8,3.2,10.4
						c0.6,4.5,5.5,8.1,3.6,13.3c1.3,1.3,2.6,2.9,3.6,4.2c1.6,6.5,1.3,13.3,3.2,19.7c-1.9,1.9-4.9,1.3-6.8,2.9
						c-7.1,1.6-14.2,4.2-21,6.2c-2.9,0.6-5.5,2.9-8.4,3.2c-1.3,1-3.6,0.6-4.9,1.6c-0.3,0.3-1,0.6-1.3,0.3c-2.6,0.3-4.9,1.3-7.1,2.3
						c-3.6,0.6-6.8,2.3-10.4,2.6c-1,0.3-0.6,1.9-0.6,2.9c0.3,2.3,0.6,4.5,1.9,6.5c3.2,3.2,7.8,5.5,12.9,4.9c1-0.6,2.9-0.6,3.9-0.6
						c2.3-1.6,5.2-2.3,7.1-4.5c2.9,0.3,3.2-3.2,6.2-2.6c3.2-1.9,6.8-4.2,10-6.2c3.9-0.3,6.8-1.9,9.7-3.9c4.2-0.6,6.8-4.2,11-5.2
						c3.2-1.6,7.1-1.9,10.7-2.6c2.9,0.6,6.5-1.6,8.7,0.3c0.6,1.3,2.3,2.6,1.3,3.9h1c2.3-2.3,5.5-3.6,7.4-6.1c3.2-2.9,7.8,0,11-2.3
						c2.9,0.6,5.2-1.9,7.8-1.3c4.2-1,8.4-1.6,12.9-1.9c2.3,0.3,4.5-1,6.8-0.6c5.5-0.6,11-1.9,16.8-1c5.2,1.6,11,2.9,16.2,1
						c2.3-0.3,2.3-3.2,3.9-4.9L470.6,226.9z M404.9,208.5c-1.6,1.6-2.3,4.5-4.2,6.2c0.3,3.9-2.9,6.5-4.5,9.7
						c-0.6,1.6-2.9,2.9-2.3,4.9c-3.9,1.9-8.1,2.9-12.3,4.2c-1.3,1-3.2,1.3-4.2,0.3c-1.6-1.3,1.9-2.9,0.3-4.9
						c-2.3-3.6,0.3-6.8-0.6-10.7c-1.3-3.9,0.3-8.1-3.2-11c0-2.6,0.3-4.2,1.9-5.8c6.2,1.3,12.6,2.3,19.1,2.3c2.6-0.3,5.2-2.6,7.4-1
						c1.3,0,1.9,0.6,2.6,1.3C406.2,205.6,403.3,206.9,404.9,208.5z"/>
					<path d="M441.8,271.9c-2.3-1.3-4.5-1.3-7.4-1.6c-3.9,0.6-8.4,0.3-12,0.3c3.2,2.9,10,4.2,10.4,9.7c-1.3,3.2-1.3,7.1-4.5,8.7
						c-3.9,6.8-11.3,9.7-16.8,14.2c2.3,0,4.9,0.3,7.1,0.3c6.2,1.9,12.3,2.3,18.5,1.3c1.3-2.3,4.5-1,5.5-3.2c4.5-2.9,8.7-6.2,12.3-10
						c0.9-2.3,3.2-3.2,3.9-5.8c0.3-3.2-1.9-5.2-2.9-7.8C451.2,275.5,446.7,273.9,441.8,271.9z"/>
					<path d="M379,278.1c-1.9,1.6-4.2,1.6-6.2,3.2c-2.6,1-4.2,3.2-6.5,4.5c-2.3,0.6-4.5,1.9-7.4,1.9c-1.3,1-3.2,1-4.5,1.9l0.3,0.3
						c0,0.6,0,1-0.3,1.3c-1,0.3-1.9,1.3-2.9,0.3c-0.3-0.6,0.6-1,1-1.3h-1.6c-2.3,2.3-4.9,1.3-7.1,2.6c-3.9,0-7.4,0-11,0.6
						c-2.9,0.3-6.2-1-7.1-3.2c-1,1-0.6,2.9-1.9,3.6c0.6,3.9,4.2,7.1,5.5,10.7c1,0.6,2.3,1.3,2.3,2.6c2.3,0.3,3.9,1.3,5.8,1.9
						c3.6-0.6,6.8-2.3,9.7-3.9c1-1.6,2.9-1.6,4.2-2.9c3.2-0.6,4.9-4.2,8.4-4.9c4.5-4.2,8.7-8.1,13.3-12.3c2.9-2.6,5.5-6.2,8.7-8.1
						H381C380.7,277.4,379.7,278.1,379,278.1z"/>
				</g>
				<g>
					<g>
						<g>
							<path d="M559.6,225.5c-1.5,0-2.9-0.2-4.3-0.4c-0.4,0-0.8-0.1-1.1-0.2l-0.6-0.1l-0.3-0.5c-0.6-1-1.4-1.3-2.7-1.5
								c-1.4-0.3-3.2-0.7-4.1-2.8c-2.3-1.5-2.3-4.2-2.3-6.2c0-1.1,0-2.1-0.2-2.9l-0.2-0.6l0.4-0.5c1.8-2.3,4.3-3.7,6.7-5
								c2.6-1.5,5.2-2.9,6.5-5.4l0.1-0.2l0.1-0.1c3.5-3.5,6.2-7,9.5-11.8l0.4-0.5h0.4l-0.3-0.5l0.7-0.6c3.6-3.1,5.9-7.3,7.4-10.7
								c-0.7,0.3-1.5,0.5-2.2,0.7c-1.5,0.4-2.7,0.6-3.5,1.8l-0.4,0.5H569c-3.2,0-5.6,1.4-8.2,2.9c-1.2,0.7-2.4,1.4-3.8,2h-0.1h-0.1
								c-1.6,0.4-3.3,1-5,1.7c-2.8,1.1-5.8,2.2-8.9,2.2c-1.7,0-3.3-0.4-4.8-1c-0.2,0-0.3,0-0.5,0c-1.3,0-2.7-1.1-3.2-2.1l-0.5-1
								l1-0.5c0.4-0.2,0.8-0.6,1.3-0.9c1.1-0.9,2.4-1.8,3.9-1.8c0.6,0,1.1,0.1,1.6,0.4c1.1-1,2.7-1.4,4.2-1.7c1-0.2,2-0.4,2.6-0.8
								c1.3-1.2,2.6-1.3,3.6-1.4c0.8,0,1.1-0.1,1.4-0.4l0.2-0.2l0.2-0.1c2.9-1.1,5.8-2.3,8.5-3.5c2-0.9,3.8-1.7,5.7-2.5l0.6-0.2
								l0.5,0.4c0.5,0.4,0.7,0.4,0.7,0.4c0.1,0,0.5-0.5,0.7-0.7c0.5-0.6,1.2-1.5,2.4-1.8c1.4-1.6,1-3.2,0.4-5.6
								c-0.4-1.5-0.9-3.2-0.5-4.8c-0.1-0.8-0.2-1.6-0.2-2.5c-0.1-1.4-0.2-2.9-0.7-4.1c-1.2,0.1-2.2,0.5-3.2,0.9
								c-0.9,0.3-1.7,0.7-2.7,0.9H566h-0.1c-6.1,0-11.8-0.8-17.9-1.7l-1.3-0.2l-0.2-0.1c-1.3-0.6-2.4-1.5-3.3-2.2
								c-0.5-0.4-0.9-0.8-1.4-1.1l-1.9-1.3l2.2-0.7c1.3-0.4,2.7-0.6,4.1-0.8c1.7-0.2,3.4-0.4,5-1.1l0,0l0,0c2.6-0.9,5.5-1.6,8.2-2.3
								c4.4-1.1,8.9-2.2,12.7-4.1c1.2-0.9,1.3-2.3,1.2-4.5c0-0.9-0.1-1.9,0.1-2.7c-0.2-1.2-0.4-2.6-0.5-4c-0.4-4-0.9-8.5-3.4-11
								c-2,0.1-3.7,0.8-5.3,1.4c-1.3,0.6-2.7,1.1-4.2,1.3l-2.3,0.3l1.1-2c0.6-0.9,1-2,1.4-3c0.9-2.2,1.9-4.5,4.1-6.2
								c0.6-1.9,2-2.9,3-3.6c0.3-0.2,0.6-0.5,0.8-0.6l0.2-0.2l0.3-0.1c0.7-0.2,1.3-0.2,1.9-0.3c1.2-0.1,1.7-0.2,2-0.6l0.5-0.8
								l0.8,0.3c0.8,0.3,1.5,0.6,2.4,0.9c7,2.5,16.7,6,16.7,15.8v0.1v0.1c-0.3,1.7-0.9,3.4-1.4,5c-1.1,3.2-2.2,6.6-1.4,10.2
								c0.3,0.2,0.6,0.3,0.8,0.3c0.6,0,1.3-0.4,2-0.8c0.9-0.5,1.9-1,3-1h0.2h0.2c2.2,0.6,4.8,0.8,7.3,0.9c2.7,0.1,5.4,0.2,7.9,0.9
								h0.2l0.2,0.1c2.1,1.5,2.8,4.1,2.3,7.1v0.2l-0.1,0.2c-2.1,3.1-5.5,3.5-8.5,3.8c-2.1,0.2-4,0.5-5.6,1.5l-0.4,0.2l-0.4-0.1
								c-0.4,0-0.8-0.1-1.1-0.1c-1.9,0-3.6,0.6-5.5,1.3c-0.5,0.2-1,0.4-1.6,0.6l-0.4,0.2l-0.4-0.2c-0.2-0.1-0.3-0.1-0.3-0.1
								c-0.2,0-0.6,0.5-0.8,0.8c-0.3,0.4-0.6,0.8-0.9,1.1c0,0.8,0,1.7,0,2.5c0.1,2.7,0.2,5.3-0.5,8.4c0.1,0.4,0.2,0.8,0.2,1.1
								c0,0.2,0,0.4,0.1,0.6c1.3-0.2,2.5-0.2,3.6-0.2c2.8,0,5.3,0.6,7.6,1.6c2.5,0.1,5.7,1.1,6.8,3.9l0.2,0.4L606,168
								c-1,2.3-2.9,3.6-4.8,4.7c-1,0.6-2,1.3-2.8,2.1l-0.2,0.2l-0.4,0.1c-1.9,0.4-3.2,2-4.4,3.6s-2.5,3.3-4.5,4
								c-1.1,2.8-3.3,4.2-5.3,5.5c-1.2,0.8-2.3,1.5-2.9,2.4l-0.2,0.2l-0.3,0.1c-1,0.5-1.9,1.5-2.8,2.5c-1.3,1.4-2.8,3-4.8,3.5
								c-3.5,4.7-7.3,8.2-12.6,12.6c0.1,0.2,0.3,0.4,0.4,0.5c0.1,0.1,0.2,0.3,0.3,0.4c0.1,0,0.2,0,0.3,0c1.7,0,3.6-0.5,5.6-1.1
								c2.1-0.6,4.3-1.2,6.5-1.3c0.5-0.2,1-0.5,1.5-0.7c1.3-0.6,2.6-1.2,4-1.2c0.1,0,0.2,0,0.4,0c0.9-0.8,2.2-0.9,3.4-1.1
								c1.3-0.2,2.6-0.3,3.6-1.3l0.1-0.1l0.2-0.1c0.5-0.2,1-0.3,1.4-0.3c0.2,0,0.4,0,0.6,0c0.2,0,0.4,0,0.6,0c0.8,0,1-0.2,1.1-0.3
								l0.4-0.5h0.6c3.6,0,7.1-1.6,10.4-3.2c0.5-0.2,0.9-0.4,1.4-0.7c0.1-1.1-0.7-1.9-1.9-3s-3-2.8-1.7-5l-0.8-1.6l1.4-0.3
								c0.7-0.2,1.4-0.2,2.1-0.2c4.7,0,8.1,3.4,11.2,6.5c0.8,0.8,1.6,1.6,2.4,2.3l0.2,0.2l0.1,0.2c0.9,1.9,2.3,3.4,3.7,5
								c1.2,1.4,2.5,2.8,3.6,4.5c2.1,3.2,2.9,6.2,2.5,9.5v0.4l-0.3,0.3c-2.3,2.3-5.8,3.8-8.9,3.8l0,0c-0.8,0-1.6-0.1-2.3-0.3h-0.2
								l-0.2-0.1c-1.7-1.1-3.5-1.9-5.3-2.6c-1.1-0.4-2.2-0.9-3.2-1.4l-0.6-0.3v-0.7c0-0.2-0.2-0.5-0.4-0.7c-0.4-0.5-0.8-1.2-0.6-2.1
								c0.2-0.5,0.6-0.9,0.9-1.1c-0.1-2.5-0.6-4.5-1.7-6c-1.9,0-3.5,1.2-5.2,2.4c-1.8,1.3-3.7,2.7-6.1,2.7c-0.1,0-0.2,0-0.2,0
								c-0.4,0.2-0.8,0.5-1.3,0.7c-0.9,0.5-1.8,0.9-2.2,1.5l-0.2,0.4l-0.4,0.1c-4.4,1.1-8.1,3-12,5.1c-1.9,1-4,2-6.1,2.9
								c-0.3,1.1-1.3,1.2-1.5,1.2c-0.3,0-0.6-0.1-0.8-0.1c-0.1,0-0.2,0-0.3-0.1C564.4,224.8,562.3,225.5,559.6,225.5z"/>
						</g>
						<g>
							<path d="M517.4,146.6c-1.3,0-2.3-0.4-3.2-1.2c-1.5-0.8-3-1.5-4.1-2.6c-0.4,0.3-0.9,0.4-1.4,0.4c-1.1,0-1.9-0.8-2.6-1.4
								c-0.4-0.3-0.7-0.6-1-0.8c-0.3,0-0.7,0.1-1,0.1l0,0c-2,0-3.8-0.8-5.4-1.5c-0.4-0.2-0.8-0.4-1.2-0.5l-2-0.8l1.8-1.2
								c1.8-1.2,3.8-1.4,5.8-1.5c1.5-0.2,3-0.3,4.5-0.9l0.4-0.2l0.4,0.1c0.2,0.1,0.4,0.1,0.6,0.1c0.7,0,1.4-0.4,2.2-0.7
								c0.9-0.4,1.9-0.9,3-0.9c0.6,0,1.1,0.1,1.6,0.4c0.4-0.2,0.9-0.3,1.4-0.3c1.4,0,2.7,0.9,3.7,1.6c0.2,0.2,0.4,0.3,0.6,0.4
								l0.4,0.3l0.1,0.5c0.1,0.8,1.1,1.7,2,2.6c1.3,1.2,2.6,2.5,2.3,4c-0.2,1.1-1,2-2.6,2.8l-0.2,0.1h-0.3c-0.8,0-1.7,0.2-2.6,0.5
								C519.5,146.3,518.5,146.6,517.4,146.6z"/>
						</g>
						<g>
							<path d="M506.2,232.9c-1.3,0-2.6-0.2-4-0.3c-1.3-0.2-2.7-0.3-3.9-0.3h-0.2h-0.2c-0.9-0.3-2.3-0.4-3.6-0.6
								c-3.3-0.4-7-0.8-8.9-3L484,227l2.2-0.2c9.1-0.7,13.8-8.3,18.4-15.7c1.3-2.1,2.7-4.4,4.2-6.3c0.9-1.5,1.5-3.2,2.2-5.1
								c0.6-1.7,1.3-3.5,2.2-5.1c-0.1,0-0.1,0-0.2-0.1c-2.1-0.8-1.7-2.3-1.6-2.7l0.1-0.4l0.3-0.2c0.8-0.6,1.7-0.9,2.6-1.2
								c1.3-0.4,2.3-0.8,3-2c0.8-3.2,2.7-6.3,4.5-9.1c0.6-0.8,1.1-1.7,1.5-2.4c0.4-2.6,1.7-4.9,3-7.1c0.8-1.3,1.6-2.6,2.1-3.9
								c0.3-1.1,0.9-2.1,1.5-3s1.1-1.7,1.2-2.4l0.9-3.6l1.3,3.5c1.2,3.3,0,6.2-1.1,9c-0.8,1.9-1.5,3.7-1.5,5.6
								c0,0.9-0.2,1.8-0.5,2.7c-0.5,1.9-1,3.8,0.2,5.3l1.3,1.6l-2.1,0.2c-1.4,0.2-1.7,0.9-1.7,3.6c0,1.4,0,2.8-0.6,4.1
								c-0.2,0.4-0.4,0.7-0.6,1c-1.2,2.3-2.7,5.2-1.8,7.1l0.6,1.2l-1.3,0.4c-0.4,0.1-0.6,0.8-0.8,1.8c-0.1,0.4-0.2,0.8-0.3,1.2v0.1
								v0.1c-1.1,2.1-1.6,4.6-2,7.1c-0.4,2.1-0.7,4.4-1.5,6.4c-0.1,2.5-1.6,4.9-2.9,7.1c-0.5,0.8-1,1.6-1.4,2.4l0,0l0,0
								c-1.8,3-4.2,4.7-6.7,4.7c-0.2,0-0.5,0-0.7,0C507.4,232.9,506.9,232.9,506.2,232.9L506.2,232.9z"/>
						</g>
						<g>
							<path d="M512.8,178.6c-0.9,0-1.7-0.2-2.4-0.5c-0.8-0.2-1.5-0.5-2.5-0.5c-0.2,0-0.5,0-0.7,0h-0.4l-0.4-0.2
								c-0.2-0.2-0.8-0.2-1.1-0.2c-0.2,0-0.3,0-0.5,0s-0.4,0-0.5,0c-0.6,0-2,0-2.9-1c-0.6,0-1.2,0-1.9,0c-0.9,0-1.7,0-2.6,0l0,0
								c-2.4,0-5.2-0.1-7.7-1.1l-0.8-0.3V174c0-2.1,1.9-2.3,2.7-2.5c0.3,0,0.8-0.1,0.9-0.2l0.4-0.4l0.6,0.1c0.1,0,0.2,0,0.4,0l0,0
								c1.1,0,2.1-0.7,3.2-1.5c1.3-0.9,2.8-1.9,4.8-1.9c0.3,0,0.7,0,1,0.1c1.2-0.3,2.4-0.5,3.6-0.5c3.6,0,7,1.4,10,4l0.2,0.2
								l0.1,0.3c0.1,0.2,0.2,0.5,0.4,0.8c0.5,1,1.4,3-0.8,4.6C514.9,178.2,513.9,178.6,512.8,178.6z"/>
						</g>
					</g>
				</g>
				<g>
					<g>
						<g>
							<path class="st2" d="M540.3,299.4c-1.7,0-3.1-1-4.2-1.9l-0.4-0.3l-0.2-0.4c-0.5-1.1-0.4-2.1-0.4-2.5l0.1-1.5l1.5-0.3
								c0.7-0.1,1.6-0.6,2.5-1.3c0.2-0.6,0.4-1.1,0.5-1.7c1.7-5.3,3.2-9.9,3.6-15.4c-0.2,0-0.4,0.1-0.6,0.2
								c-0.4,0.1-0.9,0.2-1.4,0.3c-1.1,0.8-2.3,0.9-3.2,1c-0.5,0.1-0.9,0.1-1.1,0.2l-1,0.4l-0.9-0.7c-0.9-0.7-2.1-1.7-2.5-3.4
								l-0.1-0.5l0.1-0.5c0.2-0.9,0.5-1.9,0.8-2.8c1.4-5,2.7-9.7,3.6-14.9c0-1.1,0.2-2,0.3-2.8c0.1-0.4,0.2-0.8,0.2-1
								c0,0-0.1-0.1-0.3-0.2l-1.1-0.8l0.2-0.8c-0.5-0.4-1.4-0.9-1.6-2c-0.1-0.5-0.1-1.3,0.5-2.2l0.6-0.9l1,0.1
								c0.1,0,0.3-0.2,0.4-0.2c0.6-0.3,1.3-0.8,2.3-0.8c0.6,0,1.1,0.1,1.7,0.4h0.1h0.1c2.5,1.4,4.2,3.2,5.1,5.4
								c1.5,2.8,0.6,5.1-0.4,6.8c0.1,0,0.2,0,0.2,0c0.7,0,1.4-0.1,2.2-0.2c0.9-0.2,1.7-0.3,2.6-0.3c2.3,0,4,1,5,2.9l0.2,0.3v0.3
								c0.4,2-0.5,3.6-2.3,4.4l-0.4,0.2h-0.4c-0.2,0-0.6,0.2-0.9,0.2c-0.6,0.2-1.2,0.4-1.9,0.4c-0.3,0-0.6,0-0.8-0.1
								c-0.4,0.1-0.7,0.1-1,0.1c-1.3,0-2.3-0.6-3.1-1c-0.5-0.3-0.9-0.5-1.2-0.5c-0.9,1.3-1.6,3.2-2.1,5.5l-0.1,0.4l-0.3,0.4
								c-0.1,0.2-0.2,0.3-0.4,0.4c0.2,0,0.4-0.1,0.6-0.1c0.7-0.2,1.5-0.4,2.3-0.4c0.8-0.4,1.5-0.5,2.3-0.5c1.5,0,3.1,0.7,4.6,1.9
								l0.2,0.2l0.2,0.2c1.3,2.1,1.8,4.3,1.3,6.2l-0.1,0.4l-0.2,0.3c-0.9,1.2-1.5,2.6-2.2,4.1c-0.3,0.6-0.6,1.2-0.9,1.9
								c-0.8,3.7-1.9,7.1-3.5,11.2c0.5,2.2-1.2,3.5-1.9,4.2c-0.2,0.2-0.6,0.5-0.6,0.6l-0.2,0.4l-0.4,0.2
								C542.2,299.1,541.3,299.4,540.3,299.4z"/>
						</g>
						<g>
							<path class="st2" d="M510.3,325.7c-0.5,0-1-0.2-1.5-0.4l-2.5-1.5l2.3-1.7c3.4-2.5,6.4-5.8,9.4-8.9c0.5-0.5,1-1,1.5-1.5
								c0.4-0.9,0.6-2.2,0.4-3.7c-0.3-0.2-0.6-0.3-1-0.3c-0.8,0-1.7,0.3-2.6,0.6c-1.2,0.4-2.5,0.8-3.9,0.8c-0.3,0-0.6,0-0.9-0.1
								c-0.1,0-0.3,0-0.4,0c-2.5,0-4.8,1.1-7.2,2.3c-0.4,0.2-0.8,0.4-1.1,0.6l-0.1,0.1h-0.1c-0.5,0.2-1,0.4-1.5,0.6
								c-1.4,0.5-2.8,1-4.4,1c-0.9,0-1.8-0.2-2.6-0.6c-0.2,0-0.3,0-0.5,0c-2.5,0-4.9-1.5-7.2-4.5l-1-1.4l0.7-0.6c0-0.1,0-0.1,0-0.2
								l0.1-1.9l1.9,0.1c1.4,0.1,2.8,0.1,4.1,0.1c4.3,0,8.2-0.5,12-1.4c0.8-0.2,1.6-0.3,2.3-0.3c0.6,0,1-0.1,1.4-0.2
								c0-0.1-0.1-0.2-0.1-0.2c-1.3-2.4-3-5.4-1.4-8.9c0-0.6,0.1-1.1,0.2-1.5c0-0.3,0.1-0.8,0.1-1l-1.3-1.1l1.1-1.4
								c0.4-0.5,0.8-2.1,0.9-3.2l0,0l0,0c0.6-5.2,0.3-10,0-15l-0.1-0.9l1.5-4.3l1.7,0.5c3.4,1,6.3,4.5,6.9,8.5l0.1,0.4l-0.1,0.4
								c0,0.2-0.1,0.3,0.1,0.6c0.9-0.1,1.9-0.4,3-0.7c1.2-0.4,2.5-0.8,3.9-0.8h0.6l0.4,0.2c0.1,0,0.2,0.1,0.4,0.1
								c1,0.3,3.6,1.1,3.5,3.8v0.3l-0.1,0.3c-0.5,1.2-1.5,2.1-2.6,2.9c-0.3,0.2-0.5,0.4-0.8,0.6l-0.7,0.6l-0.9-0.2
								c-1.6-0.3-3.4-0.4-5.3-0.4c-0.8,0-1.5,0-2.3-0.1c-0.5,2.2-0.4,4.4-0.4,6.8c0.8-0.2,1.7-0.6,2.6-1c1.3-0.6,2.7-1.3,4.1-1.3
								c1.4,0,3.4,0.7,4.4,3.9l0.1,0.4v0.4c-0.1,2-1.7,2.6-2.2,2.8c-0.1,0-0.2,0.1-0.3,0.1l-0.8,1l-1.3-0.4
								c-0.2-0.1-0.4-0.1-0.7-0.1c-0.5,0-1.1,0.2-1.8,0.3c-0.8,0.2-1.7,0.4-2.7,0.4c-0.6,0-1.2-0.1-1.8-0.3c-0.1,0-0.2,0-0.4,0
								c0.1,1,0.1,2,0.1,2.9c0,1.5,0,2.5,0.3,3.3c2.1-0.3,4.5-0.6,6.8-0.9c0.9-0.1,1.8-0.2,2.6-0.3c0.6-0.2,1.3-0.4,1.9-0.6
								c2-0.7,4-1.4,6.4-1.5l1.2-0.2c3-0.4,6-0.8,8.6-1.5h0.2h0.2c0.7-0.1,1.4-0.1,2.1-0.2c1.3-0.1,2.5-0.1,3.6-0.4l0.3-0.1h0.3
								c0.1,0,0.3,0,0.4,0c3.2,0,5.4-2.3,6.6-3.9c0.2-1.4,0.8-2.6,1.4-3.6c0.8-1.5,1.2-2.3,0.8-3.2l-1.5-4l3.2,1.3c0,0,0,0,0-0.1
								c0.7-4.5,1.9-8.9,3-13.2c0.9-3.4,1.7-6.5,2.3-9.7c0.1-0.6,0.3-1.3,0.5-1.9c0.2-0.5,0.4-1.3,0.4-1.6c-0.6,0.1-1.3,0.2-2,0.4
								c-1.1,0.2-2.2,0.5-3.4,0.5c-1.4,0-2.7-0.4-3.8-1.1l-0.4-0.2l-0.2-0.4c-0.2-0.3-0.6-0.6-0.9-0.9c-0.8-0.7-1.9-1.6-2.2-3.4
								l-0.3-1.9l1.9-0.2c1-0.1,2.1-0.2,3-0.3c3-0.2,5.9-0.5,8.7-1.3l0.6-0.2l0.6,0.3c2.6,1.2,5.3,2.4,7.4,4.3c1.8,1.1,1.7,3,1.7,4
								c0,0.8,0,1.1,0.2,1.3l1.1,1.2l-1.1,1.3c-1.6,1.9-2.4,4.2-3.4,6.8c-0.1,0.3-0.2,0.6-0.3,0.9c0,1.2-0.7,2-1,2.4
								c-0.1,0.1-0.2,0.2-0.2,0.3c0,0.2-0.1,0.6-0.1,1c-0.1,1.1-0.2,2.8-1.2,3.9c-0.3,1.2-0.8,2.5-1.3,3.8c-0.6,1.5-1.2,3-1.4,4.4
								v0.2l-0.1,0.2c-0.8,2-1.4,4-2.1,6.2c-0.4,1.3-0.8,2.6-1.2,3.9c0.3-0.1,0.7-0.2,1.1-0.2c0.2,0,0.3,0,0.5,0
								c6.2-0.5,11.8-1.6,17.8-2.7l2.3-0.4l0.4,0.1c0.5,0.2,1,0.3,1.5,0.4c2.5,0.6,5.1,1.3,7,4.2l0.4,0.5v0.4c0,0.1,0.1,0.2,0.2,0.2
								c0.5,0.6,1.7,2,0.8,4c-0.8,1.9-2.6,3-5,3l0,0c-0.6,0-1.3-0.1-1.9-0.2l-0.3-0.1l-0.2-0.2c-3-1.9-7-2.3-9.7-2.3
								c-1.4,0-2.8,0.1-4.2,0.3l-0.6,0.1l-0.6-0.3c0,0-0.1,0-0.2,0c-0.2,0-0.4,0-0.6,0.1c-0.3,0-0.8,0.1-1.2,0.1s-0.7,0-1.1-0.1
								c-0.5,0-1,0-1.5,0c-3.4,0-6.4,0.6-9.7,1.2c-3.2,0.6-6.6,1.2-10.2,1.2c-0.1,0-0.1,0-0.2,0c-1,0.3-2.1,0.4-3.5,0.4
								c-0.8,0-1.5,0-2.1-0.1c-4.7,0.4-8.9,1.3-13.6,2.7c-1.1,0.4-2.3,0.5-3.4,0.6c0.7,0.5,1.3,1.1,1.6,2.1c1.4,1,1.6,2.8,1.7,4
								c0,0.2,0,0.5,0.1,0.7l0.2,1.1l-0.5,0.4c-0.1,0.4-0.3,0.9-0.8,1.4v0.1l-0.1,0.2c-0.7,2-2.4,2.7-3.4,3.2
								c-0.5,0.2-1,0.4-1.1,0.6l-0.3,0.7l-0.6,0.3c-4.2,2.1-8.1,4-12.9,4.4l0,0C511.5,325.4,511,325.7,510.3,325.7z"/>
						</g>
						<g>
							<path class="st2" d="M527.6,264.3c-0.6,0-1.2-0.1-1.7-0.2c-0.2,0-0.5-0.1-0.6-0.1H525l-0.2-0.1c-1.1-0.4-2.3-0.9-3.3-1.5
								c-1.2-0.6-2.5-1.2-3.8-1.6l-0.3-0.1l-0.6-0.4c-0.2,0-0.4-0.1-0.5-0.2l-2.8-0.2l1.5-2.6c1.1-2,3-2.4,4.4-2.6
								c0.6-0.1,1.1-0.2,1.5-0.4l0.5-0.2h0.5c3.7,0.2,6.8,1.5,8.8,3.8l0.3,0.3l0.1,0.4c0.4,1.4,0.4,3.5-0.9,4.7
								C529.7,263.7,528.9,264.3,527.6,264.3z"/>
						</g>
						<g>
							<path class="st2" d="M561.9,274.1c-2.3,0-3.6-1.5-4.6-2.6c-0.8-0.9-1.2-1.4-1.9-1.5l-1.7-0.3l0.1-1.4
								c-0.1-0.3-0.3-0.8-0.2-1.3l0.1-1.1l1-0.5c1.1-0.5,2.3-0.8,3.5-0.8c3.5,0,6.3,2.3,7,5.6l0.2,0.8l-2.1,3h-0.9
								C562.1,274.1,561.9,274.1,561.9,274.1L561.9,274.1z"/>
						</g>
						<g>
							<path class="st2" d="M557.9,287.4c-1,0-1.9-0.4-2.6-1.1c-0.3-0.3-0.7-0.6-1.1-0.9c-1.1-0.8-2.5-1.8-3.2-3l-0.8-1.3l1-1.1
								c1.1-1.1,2.5-1.7,4.2-1.7c1.5,0,3,0.5,4.3,1l0.6,0.2l2.9,5l-1.1,1C560.5,286.8,559.2,287.4,557.9,287.4L557.9,287.4z"/>
						</g>
						<g>
							<path class="st2" d="M528.5,295.2c-0.1-0.2-0.2-0.3-0.3-0.5c-0.7-1.1-2-3-0.8-5.1c1.5-2.8,2.6-5.7,3.8-8.5l0.6-1.5l1.6,0.4
								c3.7,0.8,4.1,4.6,4.2,5.8v0.6l-0.3,0.5c-0.4,0.7-0.6,1.6-0.9,2.6c-0.8,2.6-2,6.6-6.2,6.8h-1.1L528.5,295.2z"/>
						</g>
						<g>
							<path class="st2" d="M573,323.3c-0.4-0.1-0.8-0.1-1.3-0.1c-1.7-0.1-4.8-0.3-5.6-3.7c-0.5-0.9-1.1-1.9-1.2-3.2
								c-1.3-1.4-2.3-2.8-3.3-4.3c-1.3-1.9-2.4-3.6-4.2-4.7l-0.8-0.5l-0.6-4l1.3-0.6c0.8-0.4,1.7-0.5,2.6-0.5c1.7,0,3.6,0.6,5.9,1.7
								l0,0c0.8,0.4,1.6,0.8,2.5,1.1c3.2,1.3,7.1,3,8.5,7.3c1.5,2.4,1.2,4.7,0.8,6.9v0.1v0.1c-0.6,1.8-1.9,3-3.1,4l-0.7,0.6
								L573,323.3z"/>
						</g>
					</g>
				</g>
			</g>
		</g>
	</g>
</g>
<g>
	<path class="st3" d="M464.9-52.9c0-11.1-8.6-20.2-19.5-21c-3.4-6.4-10.1-10.7-17.8-10.7H233.5c-7.7,0-14.4,4.4-17.8,10.7
		c-10.9,0.8-19.5,9.9-19.5,21c0,11.3,8.8,20.4,19.9,21c3.5,6,10,10,17.4,10h194c7.4,0,13.9-4,17.4-10
		C456.1-32.4,464.9-41.7,464.9-52.9z"/>
</g>
<g class="st4">
	<path class="st2" d="M269.7,55.7l0.5,0l1.2,0.1c0,0.2,0,0.5,0,0.7c-0.2,5.3-0.5,7.3-1.1,8c-0.6,0.7-1.3,0.9-3.5,0.8
		c-0.1-0.7-0.2-1.6-0.5-2.2c0.7,0.1,1.2,0.1,1.5,0.1c0.3,0,0.5-0.1,0.6-0.3c0.3-0.4,0.5-1.7,0.6-5.1h-2.1c-0.3,2.7-1,5.2-3.1,6.9
		l1.4,0.3c-0.1,0.2-0.3,0.4-0.7,0.4l0,0.1c2.4,1.1,5.2,2.5,6.7,3.6l-1.4,1.9c-0.6-0.4-1.4-1-2.3-1.5v1.6h-3.1v1.6h5.9v2h-3l2.3,0.9
		c-0.1,0.2-0.3,0.3-0.6,0.3c-0.3,0.6-0.8,1.6-1.2,2.3l3.6-0.2l0,1.9c-5.4,0.5-11.3,1-15,1.3c0,0.2-0.2,0.4-0.4,0.4l-1.1-2.6
		c1.1-0.1,2.3-0.1,3.8-0.2c-0.2-0.9-0.7-2.2-1.2-3.2l2-0.6c0.6,1,1.1,2.3,1.4,3.2l-1.9,0.6l3.1-0.2v-3.8h-6v-2h6v-1.6h-3v-0.8
		c-1,0.6-2.1,1.3-3.2,1.8c-0.3-0.6-1-1.5-1.5-1.9c3.3-1.4,5.8-3.3,7.5-5.1c-0.2-0.3-0.5-0.6-0.8-0.8c0.4-0.2,0.7-0.4,1.1-0.6
		c-0.1-0.3-0.2-0.6-0.4-0.9c-2.1,0.9-4.3,1.9-5.8,2.4c0,0.2-0.1,0.4-0.3,0.5l-1.3-2.5c0.5-0.1,1-0.3,1.6-0.5v-6.7l1.5,0.5
		c1.4-0.6,2.8-1.4,3.7-2.1l2.1,1.7c-0.1,0.1-0.3,0.2-0.6,0.1c-1.1,0.7-2.7,1.4-4.3,2V62l2.5-0.8c-0.4-0.6-0.8-1.3-1.2-1.9l1.7-0.9
		c0.9,1.1,1.8,2.5,2.3,3.6c0.8-1.2,1.1-2.6,1.3-4.2h-1.7v-2.2H269.7z M267.3,69.3c-1.3-0.8-2.8-1.5-4.1-2.1
		c-0.8,0.7-1.6,1.4-2.6,2.1H267.3z M266.4,78.3c-0.3-0.1-0.5-0.2-0.7-0.3c0.4-0.9,1-2.3,1.4-3.3h-2.5v3.7L266.4,78.3z M275.6,58.3
		c0,0.2-0.2,0.4-0.6,0.5v15.9h-2.6V58L275.6,58.3z M278.1,55l3.3,0.1c0,0.3-0.2,0.4-0.6,0.5v22.9c0,3-1.3,3.3-6.1,3.3
		c-0.1-0.7-0.5-2-0.9-2.7c0.8,0,1.6,0,2.3,0h1.4c0.5,0,0.7-0.1,0.7-0.6V55z"/>
	<path class="st2" d="M286.2,74c1.8-2.2,2.9-5.8,3.4-9.2l2.6,0.7c-0.5,3.4-1.5,7.4-3.4,9.7L286.2,74z M297.7,77.6
		c0,1.4,0.3,1.6,1.9,1.6h5c1.6,0,1.8-0.9,2-5.4c0.6,0.5,1.8,1,2.6,1.2c-0.4,5.3-1.2,6.9-4.5,6.9h-5.4c-3.4,0-4.3-0.9-4.3-4.3v-1
		c-2.1,1.4-4.3,2.7-6.6,3.8c-0.4-0.6-1.2-1.7-1.8-2.2c3-1.3,5.8-3,8.4-4.9V62.5l3.5,0.2c0,0.3-0.2,0.4-0.7,0.5v7.7
		c4.8-4.3,8.6-9.5,11.1-14.7l3.3,1.4c-0.2,0.3-0.6,0.4-0.9,0.3c-3,5.9-7.5,11.8-13.4,16.6V77.6z M296.3,54.5c3,0.9,6.6,2.7,8.6,4.1
		L303,61c-1.9-1.5-5.5-3.3-8.5-4.3L296.3,54.5z M312.1,75.5c-0.8-2.7-2.8-6.8-4.9-9.8l2.6-1.2c2.2,3,4.2,7,5.1,9.6L312.1,75.5z"/>
	<path class="st2" d="M344.6,73.2h-8.7c2.5,2.5,6.5,4.6,10.5,5.6c-0.7,0.6-1.5,1.8-2,2.5c-3.8-1.3-7.6-3.6-10.3-6.6V82h-2.8v-7
		c-2.7,2.9-6.4,5.1-10.4,6.3c-0.4-0.7-1.2-1.8-1.8-2.4c4.1-1,8-3.1,10.5-5.6h-8.3v-2.5h10v-2.9l3.5,0.2c0,0.2-0.2,0.4-0.7,0.5v2.3
		h10.5V73.2z M320.3,64.9h0.2c-0.3-0.6-0.9-1.4-1.3-1.8c5.3-1.3,6-3.6,6.2-8.7l3.1,0.2c0,0.2-0.2,0.4-0.6,0.4
		c-0.1,1.8-0.3,3.3-0.7,4.6c1.4,0.9,3.4,2.1,4.4,2.9l-1.8,1.7c-0.8-0.7-2.2-1.7-3.6-2.6c-0.9,1.4-2.4,2.4-4.8,3.2h22.1
		c-1.2-0.9-3.1-2.3-4.8-3.3c-1,1.4-2.6,2.5-5.2,3.3c-0.3-0.6-0.9-1.6-1.4-2.1c5-1.3,5.7-3.7,5.9-8.4l3.1,0.2c0,0.2-0.2,0.4-0.6,0.4
		c-0.1,1.6-0.3,3.1-0.7,4.3c1.9,1.2,4.6,2.8,5.9,3.9l-1.5,1.6h1.2v5h-2.8v-2.6H323v2.6h-2.7V64.9z M319.6,59.7
		c1.2-0.8,2-2.3,2.4-3.6l1.8,0.6c-0.5,1.6-1.2,3.1-2.6,4.1L319.6,59.7z M332.9,57.1c-0.1,0.2-0.4,0.2-0.7,0.2
		c-0.6,0.8-1.6,2-2.3,2.8c0,0-1.6-0.8-1.6-0.8c0.7-0.9,1.6-2.4,2.1-3.3L332.9,57.1z M336.3,56.5c-0.5,1.6-1.2,3.2-2.6,4.1l-1.7-1.1
		c1.2-0.8,2.1-2.2,2.5-3.6L336.3,56.5z M346,57c-0.1,0.2-0.3,0.3-0.6,0.3c-0.7,0.9-1.8,2.1-2.6,2.9l-1.7-0.9
		c0.8-0.9,1.8-2.4,2.3-3.4L346,57z"/>
	<path class="st2" d="M351.3,61.7v-2.2h10.1v2.2H351.3z M360.7,71.9v8.8h-5.8V82h-2.3V71.9H360.7z M360.6,63.7v2.2h-8v-2.2H360.6z
		 M352.6,69.9v-2.2h8v2.2H352.6z M360.4,55.5v2.2h-7.7v-2.2H360.4z M358.3,74.1h-3.5v4.3h3.5V74.1z M379,75.2v2.2h-1.9v1.9
		c0,2.6-1.3,2.6-5.4,2.6c-0.1-0.6-0.4-1.6-0.7-2.2c1.3,0.1,2.6,0.1,3,0.1c0.4,0,0.5-0.1,0.5-0.5v-1.9h-8.7V82h-2.4v-4.6h-1.9v-2.2
		h1.9v-7.5h5.5v-1.4h-7.4v-2.2h4.1v-1.7h-2.8v-2h2.8v-1.6h-3.3v-2.1h3.3v-2.3l3.2,0.2c0,0.2-0.2,0.4-0.6,0.4v1.7h4.2v-2.3l3.2,0.2
		c0,0.2-0.2,0.4-0.6,0.4v1.7h3.5v2.1h-3.5v1.6h2.9v2h-2.9v1.7h4v2.2h-7.6v1.4h5.8v7.5H379z M368.9,69.7h-3.1v1.9h3.1V69.7z
		 M365.8,73.4v1.8h3.1v-1.8H365.8z M368.2,58.9v1.6h4.2v-1.6H368.2z M368.2,62.4v1.7h4.2v-1.7H368.2z M374.6,69.7h-3.3v1.9h3.3V69.7
		z M371.3,75.2h3.3v-1.8h-3.3V75.2z"/>
	<path class="st2" d="M388.5,60.2v5.6c0,4.6-0.4,11.6-2.9,16.2c-0.5-0.5-1.7-1.3-2.4-1.6c2.3-4.3,2.5-10.4,2.5-14.7v-8.2h11v-3.2
		l3.6,0.2c0,0.3-0.2,0.4-0.7,0.5v2.5h11.1v2.6H388.5z M401,75.1v3.7h9.9v2.4h-22.5v-2.4h9.9v-3.7h-7.8v-2.4h7.8V61.3l3.3,0.2
		c0,0.2-0.2,0.4-0.7,0.5v7.5c2.2-1.6,3.4-4.4,3.9-7.8l3,0.5c-0.1,0.2-0.2,0.4-0.6,0.4c-0.2,1-0.4,2-0.8,2.9c1.6,1.4,3.6,3,4.6,4.1
		l-1.7,1.9c-0.9-1-2.4-2.4-3.9-3.7c-0.8,1.4-1.8,2.6-3.1,3.5c-0.3-0.4-0.9-0.9-1.5-1.3v2.7h8.2v2.4H401z M396.6,70.9
		c-0.6-0.8-1.7-2-2.8-3.1c-0.8,1.5-1.8,2.8-3.1,3.7c-0.4-0.4-1.4-1.2-1.9-1.6c2.4-1.6,3.8-4.6,4.2-8.3l3.1,0.4
		c-0.1,0.2-0.2,0.4-0.6,0.4c-0.2,1.1-0.4,2.1-0.7,3.1c1.3,1.1,2.7,2.6,3.5,3.5L396.6,70.9z"/>
</g>
<rect x="223.6" y="-57.9" transform="matrix(0.7071 -0.7071 0.7071 0.7071 104.5236 145.7205)" class="st2" width="9.2" height="9.2"/>
<rect x="428" y="-57.8" transform="matrix(0.7071 -0.7071 0.7071 0.7071 164.3466 290.2861)" class="st2" width="9.2" height="9.2"/>
<g>
	<g>
		<path class="st5" d="M233.5-101.1c-5.3,0-10.2-2.8-12.9-7.4l-1.4-2.4l-2.8-0.2c-8.4-0.4-15-7.4-15-15.8c0-8.3,6.4-15.2,14.7-15.8
			l2.8-0.2l1.3-2.5c2.6-4.9,7.7-7.9,13.2-7.9h194c5.5,0,10.6,3,13.2,7.9l1.3,2.5l2.8,0.2c8.3,0.6,14.7,7.5,14.7,15.8
			c0,8.4-6.6,15.4-15,15.8l-2.8,0.2l-1.4,2.4c-2.7,4.6-7.7,7.4-12.9,7.4H233.5z"/>
		<path class="st3" d="M464.9-126.7c0-11.1-8.6-20.2-19.5-21c-3.4-6.4-10.1-10.7-17.8-10.7H233.5c-7.7,0-14.4,4.4-17.8,10.7
			c-10.9,0.8-19.5,9.9-19.5,21c0,11.3,8.8,20.4,19.9,21c3.5,6,10,10,17.4,10h194c7.4,0,13.9-4,17.4-10
			C456.1-106.2,464.9-115.5,464.9-126.7z"/>
	</g>
	
		<text transform="matrix(1 0 0 1 253.4517 -116.7339)" class="st2" style="font-family:'KozGoPr6N-Medium-83pv-RKSJ-H'; font-size:29.369px; letter-spacing:2;">劉必榮講座</text>
	
		<rect x="223.6" y="-132" transform="matrix(0.7071 -0.7071 0.7071 0.7071 156.8853 124.0316)" class="st2" width="9.2" height="9.2"/>
	
		<rect x="428" y="-131.9" transform="matrix(0.7071 -0.7071 0.7071 0.7071 216.7083 268.5972)" class="st2" width="9.2" height="9.2"/>
</g>
<rect x="182" y="40.4" class="st6" width="304.4" height="54.7"/>
</svg>
